<?xml version="1.0" standalone="no"?><svg xmlns="http://www.w3.org/2000/svg" viewBox="0 0 1440 320"><path fill="#000b76" fill-opacity="10" d="M0,288L34.3,266.7C68.6,245,137,203,206,176C274.3,149,343,139,411,149.3C480,160,549,192,617,218.7C685.7,245,754,267,823,266.7C891.4,267,960,245,1029,208C1097.1,171,1166,117,1234,80C1302.9,43,1371,21,1406,10.7L1440,0L1440,320L1405.7,320C1371.4,320,1303,320,1234,320C1165.7,320,1097,320,1029,320C960,320,891,320,823,320C754.3,320,686,320,617,320C548.6,320,480,320,411,320C342.9,320,274,320,206,320C137.1,320,69,320,34,320L0,320Z"></path></svg>