<svg width="30" height="25" viewBox="0 0 30 25" fill="none" xmlns="http://www.w3.org/2000/svg">
<path d="M22.9808 7.13073L23.468 7.11823C23.7136 7.11193 23.9514 7.09612 24.1982 7.07652L24.2079 7.07575L24.2079 7.07584L24.2505 7.07329C24.9188 7.03324 25.6644 6.98855 26.3578 7.10649C27.0866 7.23045 27.7912 7.53849 28.3346 8.22654C29.0146 9.08465 29.3064 10.3068 29.2495 11.5542C29.2495 11.5543 29.2495 11.5543 29.2495 11.5544L28.75 11.5316C28.7207 12.1783 28.5901 12.8416 28.3555 13.4817L22.9808 7.13073ZM22.9808 7.13073V7.61807V11.8964C22.9808 13.8647 22.6163 15.73 21.9701 17.3895L21.6953 18.0954L22.4523 18.0707C24.8323 17.9931 26.5785 17.0099 27.7059 15.6288L22.9808 7.13073ZM22.9808 6.07257V6.59528L23.503 6.57207C23.7182 6.56251 23.9427 6.54995 24.1665 6.53742L24.2044 6.53531L24.2073 6.53513C25.8977 6.43046 27.3284 6.36902 28.4351 7.76895L28.4351 7.76907C29.1793 8.70985 29.5604 10.0973 29.4899 11.601L29.4898 11.602C29.4548 12.3801 29.297 13.1854 29.0134 13.9598L29.0134 13.9599C28.7324 14.7279 28.3299 15.4606 27.8008 16.1066L27.8003 16.1072C26.5463 17.6432 24.5625 18.7366 21.7445 18.6235L21.4319 18.611L21.2839 18.8866C20.906 19.5903 20.475 20.2446 19.9989 20.8402C18.1666 23.12 15.6706 24.5 12.9558 24.5H10.5224C7.80753 24.5 5.31152 23.12 3.47919 20.8401C1.64867 18.5559 0.5 15.3911 0.5 11.8964V0.776068C0.5 0.668732 0.535528 0.586995 0.572647 0.540805C0.590663 0.518386 0.606113 0.507739 0.614401 0.503368C0.618439 0.501239 0.620926 0.500493 0.62188 0.50025L0.623667 0.5H22.8571L22.8572 0.499999C22.8579 0.499987 22.8607 0.499938 22.8676 0.503535C22.8758 0.507823 22.8909 0.518202 22.9086 0.540123C22.9449 0.585156 22.9808 0.666421 22.9808 0.776068V6.07257ZM22.7335 1.54882V1.04882H22.2335H1.24733H0.747335V1.54882V11.8964C0.747335 15.1776 1.82698 18.1751 3.58414 20.3616C5.34166 22.5486 7.79477 23.9412 10.5251 23.9412H12.9584C15.6887 23.9412 18.1418 22.5486 19.8993 20.3616L19.8996 20.3613C21.6538 18.1749 22.7335 15.1776 22.7335 11.8964V1.54882Z" fill="black" stroke="black"/>
</svg>
