<svg width="30" height="32" viewBox="0 0 30 32" fill="none" xmlns="http://www.w3.org/2000/svg">
<path d="M19.6319 31.1849C19.9717 31.1859 20.3083 31.1429 20.622 31.0584C20.9358 30.9739 21.2204 30.8496 21.459 30.6927C22.0061 30.3283 22.3386 29.8509 22.3986 29.3438L19.6319 31.1849ZM19.6319 31.1849H6.72199H19.6319ZM0.877604 4.7583L25.1286 4.98669L21.6562 29.2374L21.6549 29.2465L21.6538 29.2556C21.6267 29.4848 21.4643 29.7874 21.0451 30.0672C20.8819 30.1742 20.6732 30.2679 20.427 30.3342C20.1804 30.4006 19.9103 30.4357 19.6342 30.4349H19.6319L6.72199 30.4349L6.71964 30.4349C6.44652 30.4358 6.1794 30.4011 5.93555 30.3355C5.69343 30.2704 5.48803 30.1786 5.32703 30.0739C4.9076 29.7879 4.73551 29.4779 4.70247 29.2349L4.70147 29.2275L4.70032 29.2201L0.877604 4.7583Z" stroke="black" stroke-width="1.5"/>
<path d="M24 11L27 13C28.5 14 29.5 16 27.5 20C25.8508 23.2985 23.3333 24.5 22 24.5" stroke="black" stroke-width="1.5"/>
</svg>
