<svg width="30" height="40" viewBox="0 0 30 40" fill="none" xmlns="http://www.w3.org/2000/svg">
<path d="M21.5875 38.4115C21.9272 38.4128 22.2639 38.359 22.5776 38.2533C22.8914 38.1477 23.1759 37.9923 23.4145 37.7962C23.9616 37.3407 24.2942 36.7439 24.3542 36.11L21.5875 38.4115ZM21.5875 38.4115H8.67756H21.5875ZM2.80643 5.1904L27.1084 5.47649L23.609 36.0247L23.6082 36.032L23.6075 36.0394C23.5685 36.4514 23.3498 36.8735 22.9365 37.2183C22.7734 37.3519 22.5711 37.4641 22.3383 37.5426C22.1046 37.6212 21.8499 37.6624 21.5903 37.6615H21.5875L8.67756 37.6614L8.67461 37.6615C8.41803 37.6625 8.16631 37.6218 7.93532 37.5442C7.70679 37.4674 7.50801 37.3576 7.3474 37.2271C6.93169 36.8731 6.70656 36.4427 6.66048 36.0191L6.66057 36.0191L6.65908 36.0072L2.80643 5.1904Z" stroke="black" stroke-width="1.5"/>
</svg>
