<svg width="113" height="76" viewBox="0 0 113 76" fill="none" xmlns="http://www.w3.org/2000/svg">
<path d="M86.6 18.31V19.8645L88.1535 19.809C88.9569 19.7804 89.7955 19.7426 90.6361 19.7048L90.7774 19.6985L90.7845 19.6981C97.1397 19.3819 102.803 19.1835 107.091 23.5419L107.091 23.5423C109.889 26.3848 111.282 30.5182 111.023 34.9626L111.022 34.9661C110.893 37.2745 110.31 39.6724 109.255 41.988L109.255 41.9885C108.21 44.2839 106.705 46.4909 104.709 48.4493L104.708 48.451C99.9599 53.1241 92.3671 56.5094 81.5584 56.1608L80.7257 56.1339L80.2628 56.8266C78.8475 58.9448 77.2298 60.919 75.4386 62.7201C68.5461 69.6123 59.0526 73.88 48.61 73.88H39.48C29.0371 73.88 19.5433 69.612 12.6507 62.7193C5.76774 55.8164 1.5 46.3125 1.5 35.87V2.34C1.5 1.87843 1.87843 1.5 2.34 1.5H85.76C86.2258 1.5 86.6 1.8726 86.6 2.34V18.31ZM88.0691 21.4703L86.6 21.5006V22.97V35.87C86.6 41.7576 85.2439 47.3445 82.8301 52.3259L81.7553 54.544L84.2193 54.4795C92.9386 54.2511 99.3609 51.3654 103.552 47.2392C105.394 45.4292 106.789 43.3874 107.755 41.2728L107.755 41.2723C108.71 39.1782 109.247 36.9963 109.368 34.8545C109.586 31.0083 108.457 27.2724 105.91 24.6888C103.916 22.659 101.38 21.7825 98.7831 21.4276C96.2576 21.0823 93.5263 21.2138 90.9955 21.3356L90.868 21.3417L90.8562 21.3423L90.8445 21.343C89.9135 21.4025 89.0079 21.451 88.0691 21.4703ZM84.92 4.67V3.17H83.42H4.68H3.18V4.67V35.87C3.18 45.8578 7.27247 54.9338 13.8493 61.5107C20.4262 68.0875 29.5022 72.18 39.49 72.18H48.62C58.6078 72.18 67.6838 68.0875 74.2607 61.5107L74.2615 61.5098C80.8276 54.9333 84.92 45.8577 84.92 35.87V4.67Z" stroke="black" stroke-width="3"/>
</svg>
