<svg width="36" height="35" viewBox="0 0 36 35" fill="none" xmlns="http://www.w3.org/2000/svg">
<path fill-rule="evenodd" clip-rule="evenodd" d="M2.37198 1.5H27.6279C27.9378 1.5 28.1731 1.77903 28.1207 2.08448L22.8064 33.0845C22.7653 33.3245 22.5572 33.5 22.3136 33.5H7.68627C7.44272 33.5 7.23461 33.3245 7.19346 33.0845L1.87917 2.08448C1.82681 1.77903 2.06207 1.5 2.37198 1.5ZM0.400736 2.33792C0.191283 1.11612 1.13235 0 2.37198 0H27.6279C28.8675 0 29.8086 1.11612 29.5992 2.33793L28.6486 7.88261C29.0332 7.94056 29.4952 8.02187 29.9907 8.134C31.2805 8.42582 32.9563 8.95927 34.0137 9.95362C35.1274 11.0009 35.6862 12.2435 35.7985 13.5656C35.9093 14.8692 35.5835 16.2066 35.0098 17.4762C33.8665 20.0067 31.6666 22.429 29.4514 24.0989C28.6827 24.6784 27.6173 25.2065 26.7827 25.5791C26.3579 25.7687 25.9785 25.9243 25.705 26.0326C25.6386 26.0589 25.5784 26.0825 25.5251 26.1031L24.2849 33.3379C24.1203 34.2981 23.2878 35 22.3136 35H7.68627C6.71209 35 5.87962 34.2981 5.71502 33.3379L0.400736 2.33792ZM25.8237 24.3614C25.9348 24.3138 26.0511 24.263 26.1712 24.2094C26.9879 23.8448 27.9226 23.3729 28.5485 22.9011C30.6232 21.3371 32.6303 19.0996 33.6429 16.8586C34.1472 15.7424 34.3866 14.6662 34.3039 13.6926C34.2228 12.7375 33.8294 11.8393 32.9862 11.0464C32.2443 10.3487 30.9201 9.88219 29.6597 9.59702C29.1927 9.49136 28.7561 9.41515 28.3951 9.36137L25.8237 24.3614Z" fill="black"/>
</svg>
