<svg width="30" height="53" viewBox="0 0 30 53" fill="none" xmlns="http://www.w3.org/2000/svg">
<path d="M25 10.4444V12.7313C25 14.51 26.3528 15.9093 27.5828 17.1943C28.495 18.1473 29 19.5273 29 21.5C29 22.5885 28.4619 23.5669 27.7179 24.3317C26.415 25.671 25.5542 27.2235 27.2217 28.0663C27.3214 28.1167 27.415 28.1615 27.5 28.2V48C27.5 50.2091 25.7091 52 23.5 52H6.5C4.29086 52 2.5 50.2091 2.5 48V28.2C2.58497 28.1615 2.67861 28.1167 2.77825 28.0663C4.4458 27.2235 3.58495 25.671 2.2821 24.3317C1.53812 23.5669 1 22.5885 1 21.5C1 19.7599 1.72036 18.3893 2.59128 17.4153C3.76667 16.1007 5 14.527 5 12.7635V10.4444M25 10.4444H5M25 10.4444C26.3807 10.4444 27.5 9.59876 27.5 8.55556V2.88889C27.5 1.84568 26.3807 1 25 1H5C3.61929 1 2.5 1.84568 2.5 2.88889V8.55556C2.5 9.59876 3.61929 10.4444 5 10.4444" stroke="black" stroke-width="1.5"/>
</svg>
