<svg width="44" height="40" viewBox="0 0 44 40" fill="none" xmlns="http://www.w3.org/2000/svg">
<path fill-rule="evenodd" clip-rule="evenodd" d="M1.52753 0C0.683906 0 0.219357 0.980306 0.753574 1.63324L4.78162 6.55641L8.72876 39.1203C8.78962 39.6224 9.21575 40 9.7215 40H30.2859C30.7787 40 31.1981 39.6409 31.274 39.154L32.6596 30.2631L38.7008 27.4832C38.9847 27.3525 39.1912 27.0967 39.259 26.7917L43.1645 9.21693C43.3033 8.59241 42.8281 8 42.1883 8H36.1292L37.1961 1.15399C37.2906 0.547632 36.8217 0 36.208 0H1.52753ZM37.8485 26.2242L32.9368 28.4844L35.8954 9.5H41.565L37.8485 26.2242ZM6.03448 5.7189L2.58265 1.5H35.624L34.5122 8.63451L31.2394 29.6345L29.8578 38.5H10.1646L6.25325 6.2318C6.23044 6.04355 6.15456 5.86566 6.03448 5.7189ZM20 11.75V17.75H26V19.25H20V24.75H18.5V19.25H13V17.75H18.5V11.75H20Z" fill="black"/>
</svg>
