<svg width="30" height="40" viewBox="0 0 30 40" fill="none" xmlns="http://www.w3.org/2000/svg">
<g clip-path="url(#clip0_68_3)">
<path d="M8.2603 38.5207H21.9833C22.4418 38.5207 22.8394 38.3596 23.1376 38.0991C23.477 37.8018 23.6973 37.3802 23.7493 36.9147L6.49522 36.9061C6.55254 37.377 6.77463 37.8026 7.11672 38.1014C7.41224 38.3604 7.80537 38.5207 8.2603 38.5207ZM23.7493 36.9147L26.5836 11.2436H3.37791L4.53627 20.7823L6.49522 36.9061L23.7493 36.9147ZM4.10776 31.2464C4.09075 31.1869 4.0809 31.1243 4.0809 31.0602L4.08179 31.0305L2.59791 18.8145C2.57194 18.7441 2.55851 18.669 2.55851 18.5915C2.55851 18.568 2.5603 18.5446 2.56209 18.5219L1.67642 11.2256H1.27433C0.923284 11.2256 0.604478 11.1005 0.373433 10.8994C0.134427 10.6907 0.000101147 10.4077 0 10.1125L0 7.05924C0 6.4256 0.298209 5.84906 0.777313 5.42898L0.775522 5.42741C1.11699 5.12907 1.54522 4.91782 2.01403 4.81646L3.21224 1.71474C3.22478 1.68267 3.2391 1.65216 3.25612 1.62244C3.57493 1.05998 4.00209 0.653981 4.52239 0.385661C5.03731 0.119688 5.62657 -0.00156455 6.27761 0.00312909V0H24.0475C24.0824 0 24.1155 0.00156455 24.1487 0.00547592C24.9081 0.0320732 25.4409 0.197133 25.8815 0.513954C26.3096 0.821387 26.5827 1.22817 26.8666 1.7695C26.8809 1.79845 26.8943 1.82739 26.9051 1.85634L27.9636 4.81177C28.4481 4.9119 28.8824 5.12937 29.2245 5.42741C29.2424 5.44384 29.2594 5.46027 29.2755 5.4767C29.7242 5.89209 30 6.44985 30 7.05924V10.1132C30 10.4199 29.8567 10.6984 29.6266 10.8994C29.5997 10.9221 29.5728 10.9432 29.5442 10.9628C29.3212 11.1271 29.0355 11.2256 28.7257 11.2256H28.2815L27.4782 18.4945C27.4836 18.5258 27.4854 18.5587 27.4854 18.5915C27.4854 18.6737 27.4701 18.7534 27.4415 18.827L25.4293 37.0532C25.3397 37.8667 24.9457 38.6107 24.3349 39.145C23.7304 39.673 22.9209 40 21.9833 40H8.2603C7.32537 40 6.52119 39.6738 5.9194 39.1473C5.30776 38.613 4.91284 37.8707 4.81433 37.0618L4.10776 31.2464ZM27.2633 6.23394L11.9821 6.22925H2.64358C2.38388 6.22925 2.14567 6.32312 1.97373 6.47332L1.97194 6.47175L1.97015 6.47332C1.88212 6.55025 1.81236 6.64161 1.76487 6.74216C1.71739 6.84271 1.69311 6.95047 1.69343 7.05924V9.74635H28.3066V7.05924C28.3066 6.84411 28.2125 6.64776 28.0603 6.50148L28.0263 6.47332C27.8641 6.33097 27.6484 6.24481 27.4191 6.23081C27.3663 6.23629 27.3143 6.23707 27.2633 6.23394ZM26.1699 4.74997L25.3048 2.33118C25.1328 2.0081 24.9833 1.77733 24.8096 1.65294C24.6645 1.54812 24.4451 1.4918 24.0922 1.4785L24.0475 1.47928H6.27761V1.47615H6.27134C5.92567 1.4738 5.62657 1.53091 5.38299 1.65686C5.15284 1.77576 4.95403 1.96664 4.79194 2.23809L3.82119 4.74997H26.1699Z" fill="black"/>
</g>
<defs>
<clipPath id="clip0_68_3">
<rect width="30" height="40" fill="white"/>
</clipPath>
</defs>
</svg>
