<svg width="44" height="41" viewBox="0 0 44 41" fill="none" xmlns="http://www.w3.org/2000/svg">
<path d="M35.2532 9.25L36.455 1.5385C36.4787 1.38691 36.3614 1.25 36.208 1.25H1.52756C1.31665 1.25 1.20052 1.49508 1.33407 1.65831L5.45404 6.69383C5.48406 6.73052 5.50303 6.77499 5.50873 6.82205L9.47334 39.5301C9.48856 39.6556 9.59509 39.75 9.72153 39.75H30.2859C30.4092 39.75 30.514 39.6602 30.533 39.5385L31.9805 30.25M35.2532 9.25H42.1883C42.3483 9.25 42.4671 9.3981 42.4324 9.55423L38.5269 27.129C38.51 27.2052 38.4583 27.2692 38.3874 27.3018L31.9805 30.25M35.2532 9.25L31.9805 30.25" stroke="black" stroke-width="1.5"/>
</svg>
