<?xml version="1.0" encoding="UTF-8"?>
<!DOCTYPE svg PUBLIC "-//W3C//DTD SVG 1.1//EN" "http://www.w3.org/Graphics/SVG/1.1/DTD/svg11.dtd">
<!-- Creator: CorelDRAW -->
<svg xmlns="http://www.w3.org/2000/svg" xml:space="preserve" width="333px" height="500px" style="shape-rendering:geometricPrecision; text-rendering:geometricPrecision; image-rendering:optimizeQuality; fill-rule:evenodd; clip-rule:evenodd"
viewBox="0 0 333 470.957"
 xmlns:xlink="http://www.w3.org/1999/xlink">
 <defs>
  <style type="text/css">
   <![CDATA[
    .str0 {stroke:#1F1A17;stroke-width:2.79704}
    .fil0 {fill:#0093DD}
    .fil1 {fill:#0094DE}
    .fil2 {fill:#0097DF}
    .fil3 {fill:#0098E0}
    .fil4 {fill:#009AE0}
    .fil5 {fill:#009CE1}
    .fil6 {fill:#009DE1}
    .fil7 {fill:#009EE2}
    .fil8 {fill:#00A0E2}
    .fil9 {fill:#00A0E3}
    .fil10 {fill:#00A1E3}
    .fil11 {fill:#00A3E4}
    .fil12 {fill:#00A4E5}
    .fil13 {fill:#00A5E5}
    .fil14 {fill:#00A6E6}
    .fil15 {fill:#00A8E6}
    .fil16 {fill:#00A9E7}
    .fil17 {fill:#00AAE7}
    .fil18 {fill:#00ABE7}
    .fil19 {fill:#00ACE8}
    .fil20 {fill:#06ADE8}
    .fil21 {fill:#11AEE8}
    .fil22 {fill:#1CAFE9}
    .fil68 {fill:#1F1A17}
    .fil23 {fill:#21B0E9}
    .fil24 {fill:#28B1E9}
    .fil25 {fill:#2CB1E9}
    .fil26 {fill:#31B2EA}
    .fil27 {fill:#36B3EA}
    .fil28 {fill:#3AB4EA}
    .fil29 {fill:#3EB5EB}
    .fil30 {fill:#41B6EB}
    .fil31 {fill:#45B7EC}
    .fil32 {fill:#48B7EC}
    .fil33 {fill:#4CB8EC}
    .fil34 {fill:#4FB9EC}
    .fil35 {fill:#53BAED}
    .fil36 {fill:#56BBED}
    .fil37 {fill:#5ABCEE}
    .fil38 {fill:#5DBDEE}
    .fil39 {fill:#60BEEE}
    .fil40 {fill:#63BFEF}
    .fil41 {fill:#66C0EF}
    .fil42 {fill:#6AC1EF}
    .fil43 {fill:#6CC2EF}
    .fil44 {fill:#70C3F0}
    .fil45 {fill:#72C4F0}
    .fil46 {fill:#75C5F0}
    .fil47 {fill:#79C6F1}
    .fil48 {fill:#7BC7F1}
    .fil49 {fill:#7FC8F2}
    .fil50 {fill:#81C9F2}
    .fil51 {fill:#84CAF2}
    .fil52 {fill:#87CBF2}
    .fil53 {fill:#8ACDF3}
    .fil54 {fill:#8DCDF3}
    .fil55 {fill:#90CFF3}
    .fil56 {fill:#93D0F4}
    .fil57 {fill:#97D1F4}
    .fil58 {fill:#9AD3F4}
    .fil59 {fill:#9CD4F5}
    .fil60 {fill:#A0D5F5}
    .fil61 {fill:#A3D6F5}
    .fil62 {fill:#A7D8F6}
    .fil63 {fill:#A9D9F6}
    .fil64 {fill:#ADDBF7}
    .fil65 {fill:#B0DCF7}
    .fil66 {fill:#B3DEF8}
    .fil67 {fill:#B8DFF8}
    .fil69 {fill:white}
    .fil70 {fill:#080808}
   ]]>
  </style>
 </defs>
 <g id="Layer_x0020_1">
  <metadata id="CorelCorpID_0Corel-Layer"/>
  <path class="fil0" d="M146.151 82.2543c-37.9991,35.6229 -77.5004,72.9075 -89.9932,122.719 -12.6784,50.5504 7.4952,107.149 73.1953,111.039 63.7015,3.77226 98.477,-44.6017 87.6023,-97.3884 -7.57892,-36.7884 -51.6343,-96.9813 -70.8044,-136.37z"/>
  <g id="_90754264">
   <path id="_134226584" class="fil1" d="M146.068 82.8161c-37.7633,35.4458 -77.0304,72.5819 -89.4611,122.191 -12.6153,50.3445 7.42019,106.699 72.7467,110.57 63.3379,3.75354 97.9026,-44.417 87.082,-96.9867 -7.54134,-36.6512 -51.3396,-96.5819 -70.3677,-135.774z"/>
   <path id="_90754696" class="fil2" d="M145.986 83.3783c-37.5278,35.2685 -76.5605,72.2564 -88.9291,121.664 -12.5522,50.1389 7.34503,106.249 72.2983,110.1 62.9743,3.73467 97.3281,-44.2322 86.5616,-96.5852 -7.50344,-36.5141 -51.0448,-96.1823 -69.9308,-135.179z"/>
   <path id="_90754672" class="fil3" d="M145.903 83.9407c-37.292,35.0912 -76.0903,71.9307 -88.3969,121.136 -12.4891,49.9332 7.27002,105.799 71.8497,109.631 62.6108,3.71596 96.7539,-44.0475 86.0415,-96.1837 -7.46586,-36.3768 -50.7502,-95.7829 -69.4942,-134.583z"/>
   <path id="_90754240" class="fil4" d="M145.82 84.5037c-37.0566,34.9139 -75.6205,71.6051 -87.8647,120.608 -12.4261,49.7275 7.19486,105.349 71.4011,109.162 62.2472,3.69725 96.1794,-43.8628 85.5212,-95.7821 -7.42812,-36.2396 -50.4555,-95.3833 -69.0575,-133.988z"/>
   <path id="_90756064" class="fil5" d="M145.737 85.0666c-36.8208,34.7368 -75.1505,71.2798 -87.3326,120.081 -12.363,49.5219 7.1197,104.898 70.9525,108.692 61.8838,3.67854 95.6053,-43.678 85.0011,-95.3806 -7.39054,-36.1024 -50.1609,-94.9838 -68.621,-133.392z"/>
   <path id="_90755848" class="fil6" d="M145.654 85.63c-36.5851,34.5595 -74.6805,70.9542 -86.8004,119.553 -12.2999,49.3162 7.04469,104.448 70.504,108.223 61.5202,3.65967 95.0307,-43.4933 84.4807,-94.9791 -7.35264,-35.9653 -49.8661,-94.5844 -68.1843,-132.797z"/>
   <path id="_90754600" class="fil7" d="M145.571 86.1936c-36.3495,34.3824 -74.2106,70.6287 -86.2684,119.026 -12.2368,49.1105 6.96969,103.998 70.0554,107.753 61.1567,3.64096 94.4566,-43.3086 83.9606,-94.5776 -7.31506,-35.8279 -49.5715,-94.1848 -67.7476,-132.201z"/>
   <path id="_90755872" class="fil8" d="M145.487 86.7576c-36.1138,34.205 -73.7405,70.303 -85.7362,118.498 -12.1737,48.9049 6.89453,103.548 69.607,107.284 60.793,3.62209 93.8821,-43.1238 83.4403,-94.176 -7.27732,-35.6908 -49.2769,-93.7853 -67.311,-131.606z"/>
   <path id="_90754216" class="fil9" d="M145.403 87.322c-35.8782,34.0278 -73.2706,69.9774 -85.2042,117.971 -12.1107,48.6992 6.81952,103.098 69.1584,106.814 60.4295,3.60338 93.3079,-42.9391 82.92,-93.7745 -7.23958,-35.5536 -48.9819,-93.3857 -66.8742,-131.01z"/>
   <path id="_90755656" class="fil10" d="M145.32 87.8866c-35.6426,33.8506 -72.8006,69.6519 -84.6719,117.443 -12.0478,48.4935 6.74436,102.648 68.7096,106.345 60.0661,3.58451 92.7335,-42.7543 82.3999,-93.373 -7.20184,-35.4165 -48.6873,-92.9863 -66.4376,-130.415z"/>
   <path id="_90755728" class="fil11" d="M145.236 88.4516c-35.4069,33.6734 -72.3308,69.3263 -84.1399,116.916 -11.9847,48.2879 6.6692,102.198 68.2612,105.875 59.7025,3.56595 92.1592,-42.5696 81.8796,-92.9714 -7.16426,-35.2791 -48.3927,-92.5868 -66.0009,-129.82z"/>
   <path id="_90754432" class="fil11" d="M145.152 89.0169c-35.1713,33.4963 -71.8608,69.0008 -83.6077,116.388 -11.9216,48.0822 6.59419,101.748 67.8126,105.406 59.339,3.54708 91.5848,-42.3849 81.3595,-92.5699 -7.12652,-35.142 -48.098,-92.1872 -65.5644,-129.224z"/>
   <path id="_133551984" class="fil12" d="M145.067 89.5827c-34.9355,33.3189 -71.3906,68.6752 -83.0756,115.86 -11.8584,47.8765 6.51919,101.298 67.3642,104.937 58.9754,3.52837 91.0105,-42.2001 80.8391,-92.1684 -7.08878,-35.0048 -47.8033,-91.7878 -65.1277,-128.629z"/>
   <path id="_133551048" class="fil13" d="M144.983 90.1485c-34.7,33.1417 -70.9208,68.3497 -82.5436,115.333 -11.7953,47.6709 6.44403,100.848 66.9156,104.467 58.612,3.5095 90.4361,-42.0154 80.319,-91.7669 -7.05104,-34.8676 -47.5086,-91.3882 -64.691,-128.033z"/>
   <path id="_133549368" class="fil13" d="M144.898 90.7149c-34.4642,32.9645 -70.4507,68.0241 -82.0114,114.805 -11.7322,47.4652 6.36902,100.397 66.4671,103.998 58.2484,3.49079 89.8618,-41.8307 79.7987,-91.3654 -7.01346,-34.7303 -47.214,-90.9888 -64.2544,-127.438z"/>
   <path id="_133551744" class="fil14" d="M144.813 91.2813c-34.2288,32.7873 -69.9809,67.6986 -81.4792,114.278 -11.6693,47.2595 6.29386,99.9474 66.0184,103.528 57.8849,3.47192 89.2874,-41.6459 79.2784,-90.9639 -6.97556,-34.5932 -46.9192,-90.5893 -63.8175,-126.842z"/>
   <path id="_133551960" class="fil15" d="M144.728 91.8485c-33.993,32.6101 -69.5109,67.373 -80.9471,113.75 -11.6062,47.0539 6.2187,99.4974 65.5699,103.059 57.5213,3.45321 88.7131,-41.4614 78.7581,-90.5624 -6.93798,-34.456 -46.6246,-90.1897 -63.381,-126.247z"/>
   <path id="_133550808" class="fil15" d="M144.643 92.4161c-33.7573,32.4328 -69.0407,67.0473 -80.4149,113.223 -11.543,46.8482 6.14369,99.0472 65.1213,102.589 57.1579,3.4345 88.1388,-41.2765 78.238,-90.1607 -6.90024,-34.3188 -46.33,-89.7903 -62.9445,-125.651z"/>
   <path id="_133551168" class="fil16" d="M144.558 92.9836c-33.5217,32.2555 -68.5709,66.7218 -79.8829,112.695 -11.4799,46.6425 6.06869,98.597 64.6727,102.12 56.7944,3.41579 87.5646,-41.0917 77.7179,-89.7592 -6.86265,-34.1815 -46.0353,-89.3907 -62.5077,-125.056z"/>
   <path id="_133552080" class="fil16" d="M144.472 93.5518c-33.286,32.0784 -68.1009,66.3962 -79.3507,112.168 -11.4168,46.4368 5.99352,98.147 64.2243,101.65 56.4308,3.39692 86.9901,-40.907 77.1975,-89.3577 -6.82476,-34.0443 -45.7406,-88.9912 -62.071,-124.46z"/>
   <path id="_133551864" class="fil17" d="M144.387 94.1202c-33.0504,31.9011 -67.631,66.0708 -78.8187,111.64 -11.3537,46.2312 5.91852,97.6968 63.7757,101.181 56.0674,3.37821 86.4159,-40.7223 76.6774,-88.9562 -6.78717,-33.9072 -45.4459,-88.5918 -61.6343,-123.865z"/>
   <path id="_133550160" class="fil18" d="M144.301 94.689c-32.8148,31.724 -67.161,65.7453 -78.2864,111.113 -11.2908,46.0255 5.84336,97.2468 63.3271,100.712 55.7036,3.35934 85.8414,-40.5375 76.1571,-88.5547 -6.74943,-33.77 -45.1513,-88.1922 -61.1978,-123.269z"/>
   <path id="_133551696" class="fil19" d="M144.215 95.2583c-32.579,31.5465 -66.6909,65.4196 -77.7542,110.585 -11.2276,45.8198 5.76819,96.7968 62.8785,100.242 55.3402,3.34062 85.2672,-40.3528 75.6368,-88.1532 -6.71169,-33.6328 -44.8565,-87.7928 -60.7611,-122.674z"/>
   <path id="_133550976" class="fil19" d="M144.128 95.8279c-32.3433,31.3694 -66.221,65.094 -77.2222,110.057 -11.1645,45.6142 5.69319,96.3466 62.43,99.7727 54.9766,3.32175 84.6928,-40.1682 75.1166,-87.7517 -6.67395,-33.4955 -44.5619,-87.3932 -60.3244,-122.078z"/>
   <path id="_133552248" class="fil19" d="M144.042 96.3976c-32.1077,31.1923 -65.751,64.7685 -76.6901,109.53 -11.1014,45.4085 5.61819,95.8965 61.9814,99.3031 54.6131,3.3032 84.1185,-39.9833 74.5964,-87.35 -6.63637,-33.3584 -44.2673,-86.9937 -59.8878,-121.483z"/>
   <path id="_133551936" class="fil20" d="M143.955 96.968c-31.8721,31.015 -65.2812,64.443 -76.1581,109.002 -11.0385,45.2028 5.54302,95.4465 61.533,98.8338 54.2495,3.28433 83.5442,-39.7986 74.076,-86.9485 -6.59847,-33.2212 -43.9723,-86.5943 -59.451,-120.888z"/>
   <path id="_133551360" class="fil21" d="M143.869 97.5387c-31.6364,30.8379 -64.8112,64.1174 -75.6259,108.475 -10.9754,44.9972 5.46802,94.9965 61.0844,98.3644 53.8861,3.26562 82.9698,-39.6138 73.5559,-86.547 -6.56089,-33.084 -43.6777,-86.1947 -59.0144,-120.292z"/>
   <path id="_135231400" class="fil22" d="M143.782 98.1099c-31.4008,30.6604 -64.3411,63.7917 -75.0939,107.947 -10.9123,44.7915 5.39301,94.5463 60.6358,97.8949 53.5226,3.24675 82.3956,-39.4291 73.0358,-86.1455 -6.52315,-32.9467 -43.3831,-85.7952 -58.5777,-119.697z"/>
   <path id="_135231136" class="fil22" d="M143.694 98.6815c-31.1652,30.4833 -63.8711,63.4662 -74.5616,107.42 -10.8493,44.5858 5.31769,94.0963 60.1872,97.4255 53.159,3.22804 81.8211,-39.2444 72.5155,-85.744 -6.48557,-32.8095 -43.0885,-85.3956 -58.1412,-119.101z"/>
   <path id="_135230896" class="fil23" d="M143.607 99.2532c-30.9294,30.306 -63.4011,63.1408 -74.0294,106.892 -10.7862,44.3802 5.24269,93.6463 59.7386,96.9561 52.7956,3.20917 81.2469,-39.0596 71.9952,-85.3425 -6.44767,-32.6724 -42.7937,-84.9962 -57.7045,-118.506z"/>
   <path id="_135230656" class="fil24" d="M143.52 99.8255c-30.6939,30.1289 -62.9313,62.8152 -73.4974,106.365 -10.7231,44.1745 5.16768,93.1961 59.2902,96.4866 52.432,3.19046 80.6724,-38.8751 71.475,-84.941 -6.41009,-32.5352 -42.499,-84.5967 -57.2678,-117.91z"/>
   <path id="_135230464" class="fil24" d="M143.432 100.398c-30.4581,29.9516 -62.4613,62.4897 -72.9652,105.837 -10.66,43.9688 5.09252,92.7459 58.8416,96.0171 52.0685,3.17175 80.0982,-38.6902 70.9548,-84.5393 -6.37235,-32.3979 -42.2044,-84.1971 -56.8312,-117.315z"/>
   <path id="_135230320" class="fil25" d="M143.344 100.971c-30.2226,29.7743 -61.9913,62.164 -72.4332,105.309 -10.5969,43.7632 5.01752,92.2959 58.3931,95.5477 51.7049,3.15303 79.5237,-38.5054 70.4344,-84.1378 -6.33461,-32.2607 -41.9096,-83.7977 -56.3943,-116.719z"/>
   <path id="_135230152" class="fil26" d="M143.256 101.545c-29.9868,29.597 -61.5213,61.8384 -71.901,104.782 -10.5337,43.5575 4.94235,91.8457 57.9445,95.0782 51.3415,3.13416 78.9495,-38.3207 69.9143,-83.7362 -6.29687,-32.1237 -41.615,-83.3983 -55.9578,-116.124z"/>
   <path id="_135229984" class="fil26" d="M143.167 102.119c-29.7512,29.4199 -61.0513,61.5129 -71.3687,104.254 -10.4708,43.3518 4.86719,91.3957 57.4958,94.6088 50.978,3.11545 78.3752,-38.136 69.3942,-83.3347 -6.25929,-31.9866 -41.3204,-82.9988 -55.5212,-115.528z"/>
   <path id="_135229936" class="fil27" d="M143.079 102.693c-29.5155,29.2428 -60.5814,61.1873 -70.8367,103.727 -10.4077,43.1462 4.79219,90.9456 57.0473,94.1394 50.6143,3.09658 77.8009,-37.9512 68.8739,-82.9332 -6.22155,-31.8492 -41.0258,-82.5992 -55.0845,-114.933z"/>
   <path id="_135227992" class="fil27" d="M142.99 103.268c-29.2799,29.0655 -60.1114,60.8618 -70.3045,103.199 -10.3446,42.9405 4.71702,90.4954 56.5987,93.6699 50.2508,3.07787 77.2265,-37.7666 68.3536,-82.5317 -6.18381,-31.7121 -40.731,-82.1998 -54.6478,-114.338z"/>
   <path id="_135228616" class="fil28" d="M142.901 103.844c-29.0443,28.8882 -59.6414,60.5362 -69.7725,102.672 -10.2815,42.7348 4.64202,90.0454 56.1503,93.2005 49.8872,3.059 76.6522,-37.5819 67.8334,-82.1302 -6.14607,-31.5749 -40.4363,-81.8003 -54.2111,-113.742z"/>
   <path id="_135229216" class="fil28" d="M142.812 104.419c-28.8086,28.7109 -59.1714,60.2107 -69.2404,102.144 -10.2183,42.5292 4.56702,89.5954 55.7017,92.731 49.5238,3.04045 76.0778,-37.397 67.3133,-81.7285 -6.10849,-31.4377 -40.1417,-81.4007 -53.7746,-113.147z"/>
   <path id="_135229912" class="fil29" d="M142.722 104.995c-28.573,28.5338 -58.7016,59.8851 -68.7084,101.617 -10.1552,42.3235 4.49185,89.1452 55.2533,92.2615 49.1602,3.02158 75.5035,-37.2123 66.7928,-81.327 -6.07059,-31.3004 -39.8469,-81.0013 -53.3377,-112.551z"/>
   <path id="_135229480" class="fil30" d="M142.632 105.572c-28.3373,28.3565 -58.2316,59.5596 -68.176,101.089 -10.0923,42.1178 4.41669,88.6952 54.8045,91.7921 48.7967,3.00287 74.9291,-37.0275 66.2727,-80.9255 -6.03301,-31.1633 -39.5523,-80.6017 -52.9012,-111.956z"/>
   <path id="_90658400" class="fil30" d="M142.542 106.149c-28.1016,28.1794 -57.7615,59.234 -67.6439,100.562 -10.0293,41.9122 4.34169,88.2452 54.3561,91.3227 48.4331,2.984 74.3548,-36.8428 65.7524,-80.524 -5.99527,-31.0261 -39.2575,-80.2023 -52.4646,-111.36z"/>
   <path id="_90658304" class="fil30" d="M142.452 106.727c-27.8661,28.002 -57.2915,58.9083 -67.1119,100.034 -9.96621,41.7065 4.26652,87.7951 53.9075,90.8533 48.0697,2.96529 73.7804,-36.6581 65.2323,-80.1225 -5.95769,-30.8889 -38.9629,-79.8028 -52.0279,-110.765z"/>
   <path id="_90659288" class="fil31" d="M142.362 107.305c-27.6303,27.8248 -56.8215,58.5828 -66.5797,99.5064 -9.9031,41.5008 4.19152,87.3448 53.4589,90.3838 47.7062,2.94642 73.2062,-36.4735 64.712,-79.721 -5.91979,-30.7516 -38.6681,-79.4032 -51.5912,-110.169z"/>
   <path id="_90659264" class="fil31" d="M142.271 107.883c-27.3946,27.6476 -56.3517,58.2572 -66.0477,98.9789 -9.83999,41.2952 4.11651,86.8948 53.0104,89.9144 47.3426,2.9277 72.6319,-36.2888 64.1918,-79.3195 -5.88221,-30.6144 -38.3735,-79.0038 -51.1545,-109.574z"/>
   <path id="_90659192" class="fil32" d="M142.181 108.462c-27.159,27.4704 -55.8817,57.9317 -65.5155,98.4513 -9.77688,41.0895 4.04135,86.4447 52.5618,89.4449 46.9792,2.90899 72.0576,-36.1039 63.6717,-78.9178 -5.84447,-30.4773 -38.0789,-78.6042 -50.718,-108.978z"/>
   <path id="_90659096" class="fil32" d="M142.09 109.041c-26.9232,27.2932 -55.4117,57.6063 -64.9834,97.9239 -9.71377,40.8838 3.96635,85.9946 52.1134,88.9754 46.6156,2.89028 71.4832,-35.9191 63.1512,-78.5163 -5.80673,-30.3401 -37.7841,-78.2047 -50.2813,-108.383z"/>
   <path id="_90659360" class="fil33" d="M141.998 109.621c-26.6877,27.1159 -54.9417,57.2806 -64.4512,97.3962 -9.65082,40.6782 3.89118,85.5445 51.6646,88.506 46.2521,2.87141 70.9089,-35.7344 62.6311,-78.1148 -5.76899,-30.2029 -37.4895,-77.8053 -49.8445,-107.787z"/>
   <path id="_90659432" class="fil33" d="M141.907 110.202c-26.4519,26.9387 -54.4717,56.9551 -63.919,96.8686 -9.5877,40.4725 3.81602,85.0945 51.2162,88.0366 45.8885,2.8527 70.3345,-35.5497 62.1108,-77.7133 -5.73141,-30.0656 -37.1948,-77.4057 -49.408,-107.192z"/>
   <path id="_134613224" class="fil34" d="M141.815 110.783c-26.2165,26.7615 -54.0018,56.6295 -63.387,96.3412 -9.52459,40.2668 3.74102,84.6443 50.7676,87.5671 45.5251,2.83383 69.7602,-35.3649 61.5907,-77.3118 -5.69367,-29.9285 -36.9002,-77.0062 -48.9713,-106.596z"/>
   <path id="_134610872" class="fil34" d="M141.723 111.364c-25.9807,26.5843 -53.5318,56.304 -62.8549,95.8136 -9.46148,40.0612 3.66601,84.1943 50.3192,87.0977 45.1613,2.81512 69.1858,-35.1803 61.0703,-76.9103 -5.65593,-29.7913 -36.6054,-76.6067 -48.5346,-106.001z"/>
   <path id="_134606840" class="fil35" d="M141.63 111.946c-25.745,26.4071 -53.0618,55.9784 -62.3227,95.286 -9.39837,39.8555 3.59085,83.7443 49.8706,86.6282 44.7979,2.79641 68.6115,-34.9954 60.5502,-76.5087 -5.61819,-29.6541 -36.3108,-76.2072 -48.098,-105.406z"/>
   <path id="_134612792" class="fil35" d="M141.538 112.529c-25.5094,26.2298 -52.5918,55.6527 -61.7907,94.7585 -9.33526,39.6498 3.51585,83.2941 49.422,86.1587 44.4344,2.7777 68.0373,-34.8107 60.0301,-76.1072 -5.5806,-29.5168 -36.0162,-75.8078 -47.6613,-104.81z"/>
   <path id="_134606600" class="fil35" d="M141.445 113.112c-25.2737,26.0525 -52.1218,55.3272 -61.2584,94.2309 -9.27231,39.4442 3.44068,82.8441 48.9734,85.6893 44.0708,2.75883 67.4628,-34.626 59.5096,-75.7056 -5.54271,-29.3796 -35.7214,-75.4082 -47.2246,-104.215z"/>
   <path id="_134606864" class="fil36" d="M141.352 113.695c-25.0381,25.8754 -51.6519,55.0018 -60.7264,93.7033 -9.20919,39.2385 3.36552,82.394 48.5248,85.2199 43.7074,2.74011 66.8886,-34.4412 58.9895,-75.3041 -5.50512,-29.2425 -35.4268,-75.0087 -46.7879,-103.619z"/>
   <path id="_87818584" class="fil36" d="M141.259 114.279c-24.8025,25.6981 -51.1819,54.6762 -60.1942,93.1759 -9.14608,39.0328 3.29052,81.9438 48.0763,84.7504 43.3438,2.72124 66.3141,-34.2565 58.4692,-74.9026 -5.46738,-29.1053 -35.1321,-74.6091 -46.3514,-103.024z"/>
   <path id="_87818728" class="fil37" d="M141.165 114.864c-24.5668,25.521 -50.7121,54.3507 -59.6622,92.6484 -9.08297,38.8272 3.21551,81.4937 47.6277,84.281 42.9803,2.70253 65.7399,-34.0719 57.9491,-74.5011 -5.4298,-28.968 -34.8375,-74.2097 -45.9147,-102.428z"/>
   <path id="_87756760" class="fil37" d="M141.071 115.45c-24.3312,25.3435 -50.2419,54.025 -59.13,92.1206 -9.01986,38.6215 3.14035,81.0436 47.1793,83.8117 42.6167,2.68366 65.1654,-33.8872 57.4287,-74.0996 -5.3919,-28.8308 -34.5427,-73.8102 -45.478,-101.833z"/>
   <path id="_156053752" class="fil37" d="M140.977 116.035c-24.0954,25.1664 -49.7719,53.6994 -58.5979,91.5931 -8.95691,38.4158 3.06534,80.5936 46.7307,83.3421 42.2533,2.66511 64.5912,-33.7023 56.9086,-73.698 -5.35432,-28.6937 -34.2479,-73.4106 -45.0414,-101.237z"/>
   <path id="_88484224" class="fil38" d="M140.883 116.622c-23.8599,24.9893 -49.3021,53.3739 -58.0657,91.0657 -8.89395,38.2102 2.99018,80.1434 46.2821,82.8726 41.8897,2.64624 64.0167,-33.5176 56.3883,-73.2965 -5.31658,-28.5565 -33.9533,-73.0112 -44.6047,-100.642z"/>
   <path id="_90760336" class="fil38" d="M140.788 117.208c-23.6241,24.812 -48.8321,53.0483 -57.5335,90.5381 -8.83084,38.0045 2.91502,79.6934 45.8335,82.4032 41.5262,2.62753 63.4425,-33.3328 55.868,-72.895 -5.27884,-28.4192 -33.6585,-72.6116 -44.168,-100.046z"/>
   <path id="_90760408" class="fil39" d="M140.693 117.796c-23.3887,24.6349 -48.3622,52.7228 -57.0015,90.0105 -8.76773,37.7988 2.84001,79.2434 45.3849,81.9339 41.1629,2.60866 62.8682,-33.1481 55.3479,-72.4935 -5.2411,-28.282 -33.3639,-72.2122 -43.7313,-99.4509z"/>
   <path id="_90760480" class="fil39" d="M140.598 118.384c-23.1529,24.4574 -47.8921,52.3972 -56.4693,89.483 -8.70462,37.5932 2.76501,78.7932 44.9364,81.4643 40.7993,2.58995 62.2938,-32.9634 54.8277,-72.092 -5.20352,-28.1448 -33.0693,-71.8127 -43.2948,-98.8553z"/>
   <path id="_90760552" class="fil39" d="M140.502 118.973c-22.9172,24.2803 -47.4221,52.0717 -55.9372,88.9554 -8.64151,37.3875 2.68985,78.3432 44.4878,80.995 40.4359,2.57108 61.7195,-32.7788 54.3075,-71.6905 -5.16578,-28.0077 -32.7747,-71.4131 -42.8582,-98.2599z"/>
   <path id="_90760624" class="fil40" d="M140.406 119.562c-22.6816,24.103 -46.9522,51.7461 -55.4052,88.4278 -8.5784,37.1818 2.61484,77.8931 44.0394,80.5256 40.0721,2.55237 61.1451,-32.594 53.7871,-71.289 -5.12804,-27.8704 -32.4799,-71.0137 -42.4213,-97.6645z"/>
   <path id="_90760696" class="fil40" d="M140.31 120.152c-22.4459,23.9259 -46.4822,51.4206 -54.8729,87.9004 -8.51544,36.9762 2.53968,77.443 43.5907,80.0559 39.7087,2.53365 60.5708,-32.4091 53.267,-70.8873 -5.0903,-27.7332 -32.1852,-70.6141 -41.9848,-97.069z"/>
   <path id="_90760768" class="fil41" d="M140.213 120.743c-22.2103,23.7486 -46.0124,51.095 -54.3408,87.3729 -8.45233,36.7705 2.46452,76.9929 43.1422,79.5865 39.3451,2.51494 59.9965,-32.2244 52.7467,-70.4858 -5.05272,-27.596 -31.8906,-70.2146 -41.5481,-96.4736z"/>
   <path id="_90760840" class="fil41" d="M140.117 121.334c-21.9745,23.5713 -45.5422,50.7693 -53.8087,86.8451 -8.38922,36.5648 2.38951,76.5429 42.6936,79.1172 38.9816,2.49607 59.4223,-32.0397 52.2265,-70.0843 -5.01482,-27.4589 -31.5958,-69.8152 -41.1114,-95.878z"/>
   <path id="_90760912" class="fil41" d="M140.019 121.926c-21.7389,23.394 -45.0722,50.4438 -53.2765,86.3177 -8.32611,36.3592 2.31451,76.0927 42.2452,78.6476 38.618,2.47736 58.8478,-31.8549 51.7062,-69.6828 -4.97724,-27.3217 -31.3012,-69.4156 -40.6748,-95.2826z"/>
   <path id="_90760984" class="fil41" d="M139.922 122.519c-21.5032,23.2169 -44.6023,50.1182 -52.7445,85.7902 -8.263,36.1535 2.23935,75.6425 41.7966,78.1783 38.2546,2.45849 58.2736,-31.6702 51.1861,-69.2813 -4.9395,-27.1844 -31.0066,-69.0162 -40.2381,-94.6871z"/>
   <path id="_90761056" class="fil42" d="M139.824 123.112c-21.2676,23.0398 -44.1323,49.7927 -52.2123,85.2626 -8.19989,35.9478 2.16434,75.1925 41.348,77.7089 37.8911,2.43978 57.6992,-31.4856 50.6659,-68.8798 -4.90192,-27.0472 -30.712,-68.6166 -39.8016,-94.0917z"/>
   <path id="_90761128" class="fil42" d="M139.726 123.706c-21.032,22.8625 -43.6625,49.4673 -51.6803,84.7352 -8.13678,35.7422 2.08934,74.7423 40.8995,77.2394 37.5275,2.42091 57.1249,-31.3009 50.1455,-68.4783 -4.86402,-26.91 -30.4172,-68.2171 -39.3647,-93.4963z"/>
   <path id="_90761200" class="fil42" d="M139.628 124.3c-20.7963,22.6852 -43.1923,49.1416 -51.148,84.2075 -8.07382,35.5365 2.01402,74.2923 40.4508,76.7698 37.1641,2.40236 56.5505,-31.116 49.6254,-68.0766 -4.82644,-26.7729 -30.1225,-67.8177 -38.9282,-92.9007z"/>
   <path id="_90761272" class="fil42" d="M139.529 124.896c-20.5607,22.5079 -42.7225,48.8161 -50.616,83.6799 -8.01071,35.3308 1.93901,73.8423 40.0023,76.3004 36.8005,2.38349 55.9762,-30.9313 49.1051,-67.6751 -4.7887,-26.6356 -29.8279,-67.4181 -38.4915,-92.3052z"/>
   <path id="_90761344" class="fil43" d="M139.43 125.492c-20.3251,22.3308 -42.2525,48.4905 -50.0838,83.1525 -7.9476,35.1252 1.86401,73.3921 39.5537,75.8309 36.437,2.36478 55.4018,-30.7465 48.5849,-67.2736 -4.75096,-26.4984 -29.5331,-67.0186 -38.0548,-91.7098z"/>
   <path id="_90761416" class="fil43" d="M139.33 126.088c-20.0893,22.1535 -41.7825,48.165 -49.5517,82.6249 -7.88465,34.9195 1.78884,72.9421 39.1053,75.3615 36.0734,2.34591 54.8275,-30.5618 48.0646,-66.8721 -4.71322,-26.3612 -29.2384,-66.619 -37.6182,-91.1144z"/>
   <path id="_90761488" class="fil44" d="M139.23 126.686c-19.8538,21.9764 -41.3126,47.8394 -49.0197,82.0973 -7.82154,34.7138 1.71384,72.492 38.6567,74.8922 35.71,2.32719 54.2532,-30.3771 47.5445,-66.4706 -4.67564,-26.2241 -28.9437,-66.2196 -37.1815,-90.5189z"/>
   <path id="_90761560" class="fil44" d="M139.13 127.284c-19.618,21.799 -40.8424,47.5137 -48.4875,81.5696 -7.75842,34.5082 1.63884,72.042 38.2083,74.4228 35.3464,2.30832 53.6788,-30.1925 47.024,-66.0691 -4.63774,-26.0867 -28.6489,-65.8201 -36.7448,-89.9233z"/>
   <path id="_90761632" class="fil44" d="M139.03 127.883c-19.3825,21.6218 -40.3726,47.1882 -47.9553,81.0422 -7.69547,34.3025 1.56351,71.5918 37.7595,73.9533 34.9828,2.28961 53.1045,-30.0077 46.5039,-65.6676 -4.6,-25.9496 -28.3543,-65.4205 -36.3081,-89.3279z"/>
   <path id="_90761704" class="fil44" d="M138.929 128.483c-19.1467,21.4446 -39.9026,46.8628 -47.4232,80.5146 -7.63236,34.0968 1.48851,71.1418 37.3109,73.4837 34.6193,2.2709 52.5303,-29.8228 45.9838,-65.2659 -4.56226,-25.8124 -28.0597,-65.0211 -35.8716,-88.7324z"/>
   <path id="_90761776" class="fil45" d="M138.827 129.083c-18.9111,21.2674 -39.4326,46.5372 -46.891,79.9871 -7.56925,33.8912 1.41351,70.6918 36.8625,73.0144 34.2557,2.25219 51.9558,-29.6381 45.4635,-64.8644 -4.52468,-25.6753 -27.7651,-64.6215 -35.435,-88.137z"/>
   <path id="_90761848" class="fil45" d="M138.725 129.684c-18.6754,21.0902 -38.9627,46.2117 -46.359,79.4597 -7.50614,33.6855 1.33834,70.2414 36.4139,72.5448 33.8923,2.23332 51.3816,-29.4534 44.9433,-64.4629 -4.48678,-25.5379 -27.4703,-64.2221 -34.9981,-87.5416z"/>
   <path id="_90761920" class="fil45" d="M138.623 130.286c-18.4398,20.9129 -38.4926,45.886 -45.8268,78.9319 -7.44303,33.4798 1.26334,69.7914 35.9654,72.0755 33.5287,2.21461 50.8071,-29.2686 44.423,-64.0614 -4.4492,-25.4008 -27.1757,-63.8226 -34.5616,-86.946z"/>
   <path id="_90761992" class="fil46" d="M138.521 130.889c-18.2042,20.7358 -38.0227,45.5604 -45.2948,78.4044 -7.37991,33.2742 1.18833,69.3414 35.5168,71.6061 33.1652,2.19574 50.2329,-29.0841 43.9029,-63.6599 -4.41146,-25.2636 -26.881,-63.423 -34.1249,-86.3505z"/>
   <path id="_90762064" class="fil46" d="M138.418 131.493c-17.9685,20.5585 -37.5527,45.2349 -44.7625,77.877 -7.31696,33.0685 1.11301,68.8912 35.0682,71.1366 32.8016,2.17703 49.6584,-28.8993 43.3824,-63.2584 -4.37372,-25.1264 -26.5862,-63.0236 -33.6882,-85.7551z"/>
   <path id="_90762136" class="fil46" d="M138.315 132.097c-17.7329,20.3813 -37.0829,44.9093 -44.2305,77.3494 -7.25385,32.8628 1.03801,68.4412 34.6196,70.6672 32.4382,2.15816 49.0842,-28.7146 42.8625,-62.8569 -4.33614,-24.9891 -26.2918,-62.624 -33.2516,-85.1597z"/>
   <path id="_90762208" class="fil46" d="M138.211 132.703c-17.4972,20.2041 -36.6129,44.5838 -43.6983,76.8218 -7.19074,32.6572 0.963004,67.9911 34.1712,70.1977 32.0746,2.1396 48.5097,-28.5297 42.3422,-62.4553 -4.29855,-24.8519 -25.9972,-62.2245 -32.8151,-84.5642z"/>
   <path id="_90762280" class="fil47" d="M138.107 133.309c-17.2615,20.0268 -36.1427,44.2582 -43.1662,76.2943 -7.12763,32.4515 0.887841,67.541 33.7226,69.7281 31.7111,2.12073 47.9355,-28.345 41.8221,-62.0538 -4.26081,-24.7148 -25.7025,-61.8251 -32.3785,-83.9686z"/>
   <path id="_90762352" class="fil47" d="M138.002 133.916c-17.026,19.8495 -35.6729,43.9327 -42.6341,75.7667 -7.06452,32.2458 0.812837,67.0909 33.274,69.2588 31.3477,2.10202 47.3612,-28.1602 41.3018,-61.6523 -4.22307,-24.5776 -25.4077,-61.4255 -31.9417,-83.3732z"/>
   <path id="_90762424" class="fil47" d="M137.897 134.524c-16.7902,19.6724 -35.2029,43.6071 -42.102,75.2391 -7.0014,32.0402 0.737833,66.6409 32.8256,68.7894 30.9841,2.08315 46.7868,-27.9755 40.7816,-61.2508 -4.18533,-24.4405 -25.1131,-61.0261 -31.5051,-82.7778z"/>
   <path id="_90762496" class="fil48" d="M137.792 135.133c-16.5545,19.4951 -34.733,43.2816 -41.57,74.7117 -6.93829,31.8345 0.66267,66.1907 32.377,68.3199 30.6206,2.06444 46.2126,-27.7909 40.2614,-60.8492 -4.14775,-24.3031 -24.8185,-60.6265 -31.0684,-82.1823z"/>
   <path id="_90762568" class="fil48" d="M137.686 135.743c-16.3189,19.318 -34.263,42.956 -41.0377,74.1842 -6.87534,31.6288 0.587507,65.7407 31.9284,67.8505 30.257,2.04557 45.6381,-27.6062 39.741,-60.4477 -4.10985,-24.166 -24.5237,-60.227 -30.6317,-81.5869z"/>
   <path id="_90762640" class="fil48" d="M137.579 136.354c-16.0831,19.1405 -33.7928,42.6303 -40.5055,73.6564 -6.81239,31.4231 0.512503,65.2907 31.4798,67.3811 29.8936,2.02686 45.0639,-27.4214 39.2209,-60.0462 -4.07227,-24.0288 -24.2289,-59.8276 -30.1952,-80.9913z"/>
   <path id="_90762712" class="fil48" d="M137.473 136.965c-15.8476,18.9634 -33.323,42.3048 -39.9735,73.1289 -6.74928,31.2175 0.43734,64.8406 31.0313,66.9116 29.5298,2.00815 44.4894,-27.2365 38.7006,-59.6446 -4.03453,-23.8916 -23.9343,-59.428 -29.7585,-80.3959z"/>
   <path id="_90762784" class="fil49" d="M137.365 137.578c-15.6118,18.7863 -32.853,41.9792 -39.4413,72.6015 -6.68616,31.0118 0.362336,64.3903 30.5827,66.4421 29.1664,1.98944 43.9152,-27.0518 38.1805,-59.2431 -3.99695,-23.7543 -23.6397,-59.0285 -29.3219,-79.8004z"/>
   <path id="_90762856" class="fil49" d="M137.257 138.192c-15.3764,18.609 -32.3831,41.6537 -38.9093,72.0739 -6.62305,30.8061 0.287331,63.9403 30.1343,65.9727 28.8028,1.97057 43.3409,-26.8671 37.6601,-58.8416 -3.95905,-23.6172 -23.3449,-58.6289 -28.8851,-79.205z"/>
   <path id="_90762928" class="fil49" d="M137.149 138.806c-15.1406,18.4319 -31.9131,41.3283 -38.3771,71.5463 -6.55994,30.6005 0.212169,63.4903 29.6857,65.5033 28.4393,1.95186 42.7667,-26.6823 37.14,-58.4401 -3.92147,-23.48 -23.0503,-58.2295 -28.4485,-78.6096z"/>
   <path id="_90763000" class="fil49" d="M137.04 139.422c-14.9049,18.2544 -31.443,41.0026 -37.8448,71.0188 -6.49699,30.3948 0.137006,63.0401 29.2369,65.0338 28.0759,1.93299 42.1924,-26.4978 36.6199,-58.0386 -3.88373,-23.3428 -22.7556,-57.83 -28.012,-78.014z"/>
   <path id="_90763072" class="fil50" d="M136.931 140.039c-14.6693,18.0773 -30.9731,40.6771 -37.3128,70.4912 -6.43388,30.1891 0.0620014,62.59 28.7885,64.5644 27.7123,1.91427 41.618,-26.313 36.0994,-57.6371 -3.84599,-23.2055 -22.4608,-57.4304 -27.5751,-77.4185z"/>
   <path id="_90763144" class="fil50" d="M136.821 140.657c-14.4336,17.9 -30.5031,40.3515 -36.7806,69.9636 -6.37077,29.9835 -0.0131614,62.14 28.3399,64.095 27.3488,1.8954 41.0437,-26.1283 35.5793,-57.2356 -3.80825,-23.0683 -22.1662,-57.031 -27.1385,-76.8231z"/>
   <path id="_90763216" class="fil50" d="M136.711 141.276c-14.198,17.7229 -30.0333,40.026 -36.2486,69.4362 -6.30765,29.7778 -0.0881657,61.6898 27.8914,63.6254 26.9852,1.87685 40.4693,-25.9434 35.059,-56.8337 -3.77067,-22.9313 -21.8716,-56.6316 -26.7018,-76.2278z"/>
   <path id="_90763288" class="fil50" d="M136.6 141.896c-13.9624,17.5456 -29.5633,39.7004 -35.7165,68.9086 -6.24454,29.5721 -0.163329,61.2398 27.4428,63.156 26.6218,1.85798 39.895,-25.7587 34.5389,-56.4322 -3.73293,-22.7942 -21.577,-56.2321 -26.2653,-75.6324z"/>
   <path id="_90763360" class="fil50" d="M136.489 142.517c-13.7267,17.3685 -29.0934,39.3749 -35.1845,68.3811 -6.18143,29.3665 -0.238333,60.7898 26.9944,62.6866 26.2582,1.83927 39.3206,-25.5739 34.0185,-56.0307 -3.69519,-22.6568 -21.2822,-55.8325 -25.8284,-75.037z"/>
   <path id="_90763432" class="fil51" d="M136.377 143.139c-13.4911,17.191 -28.6233,39.0492 -34.6521,67.8535 -6.11848,29.1608 -0.313496,60.3396 26.5456,62.2171 25.8947,1.8204 38.7463,-25.3893 33.4984,-55.6292 -3.65745,-22.5197 -20.9876,-55.4331 -25.3919,-74.4414z"/>
   <path id="_90763504" class="fil51" d="M136.264 143.762c-13.2553,17.0139 -28.1532,38.7238 -34.12,67.3259 -6.05537,28.9551 -0.388659,59.8896 26.0971,61.7477 25.5313,1.80169 38.1721,-25.2046 32.9783,-55.2277 -3.61987,-22.3825 -20.6929,-55.0336 -24.9553,-73.8459z"/>
   <path id="_90763576" class="fil51" d="M136.151 144.387c-13.0198,16.8366 -27.6834,38.3982 -33.588,66.7984 -5.99226,28.7495 -0.463663,59.4395 25.6486,61.2783 25.1677,1.78282 37.5976,-25.0199 32.4578,-54.8262 -3.58197,-22.2454 -20.3982,-54.634 -24.5185,-73.2505z"/>
   <path id="_90763648" class="fil51" d="M136.037 145.013c-12.784,16.6595 -27.2134,38.0727 -33.0558,66.271 -5.92914,28.5438 -0.538667,58.9892 25.2,60.8088 24.8042,1.76411 37.0234,-24.8351 31.9377,-54.4247 -3.54439,-22.108 -20.1035,-54.2346 -24.0819,-72.6551z"/>
   <path id="_90763720" class="fil51" d="M135.923 145.64c-12.5485,16.4824 -26.7435,37.7471 -32.5238,65.7434 -5.86603,28.3381 -0.61383,58.5392 24.7516,60.3393 24.4405,1.7454 36.4489,-24.6502 31.4174,-54.0231 -3.50665,-21.9709 -19.8089,-53.835 -23.6452,-72.0596z"/>
   <path id="_90763792" class="fil52" d="M135.808 146.268c-12.3128,16.3049 -26.2734,37.4214 -31.9916,65.2157 -5.80308,28.1325 -0.688834,58.0892 24.303,59.8699 24.077,1.72668 35.8747,-24.4655 30.8973,-53.6216 -3.46907,-21.8337 -19.5141,-53.4356 -23.2087,-71.464z"/>
   <path id="_90763864" class="fil52" d="M135.692 146.898c-12.0771,16.1278 -25.8034,37.0959 -31.4593,64.6881 -5.74013,27.9268 -0.763997,57.6391 23.8544,59.4005 23.7134,1.70781 35.3002,-24.2808 30.3769,-53.2201 -3.43117,-21.6965 -19.2193,-53.0361 -22.772,-70.8686z"/>
   <path id="_90763936" class="fil52" d="M135.576 147.529c-11.8415,15.9505 -25.3335,36.7703 -30.9273,64.1607 -5.67702,27.7211 -0.83916,57.1889 23.4058,58.931 23.35,1.6891 34.726,-24.0962 29.8568,-52.8186 -3.39359,-21.5592 -18.9247,-52.6365 -22.3353,-70.2731z"/>
   <path id="_90764008" class="fil53" d="M135.459 148.161c-11.6057,15.7734 -24.8635,36.4448 -30.3951,63.6331 -5.6139,27.5155 -0.914164,56.7389 22.9573,58.4616 22.9864,1.67023 34.1517,-23.9115 29.3365,-52.4171 -3.35585,-21.422 -18.6301,-52.2371 -21.8987,-69.6777z"/>
   <path id="_90764080" class="fil53" d="M135.342 148.794c-11.3702,15.5961 -24.3937,36.1192 -29.8631,63.1056 -5.55079,27.3098 -0.989169,56.2889 22.5087,57.9923 22.6229,1.65152 33.5773,-23.7267 28.8162,-52.0156 -3.31811,-21.2849 -18.3353,-51.8375 -21.4618,-69.0823z"/>
   <path id="_90764152" class="fil53" d="M135.224 149.429c-11.1344,15.4189 -23.9235,35.7937 -29.331,62.578 -5.48768,27.1041 -1.06433,55.8387 22.0601,57.5227 22.2595,1.63265 33.0032,-23.542 28.2961,-51.614 -3.28037,-21.1477 -18.0407,-51.438 -21.0253,-68.4867z"/>
   <path id="_90764224" class="fil53" d="M135.105 150.065c-10.8988,15.2416 -23.4535,35.4681 -28.7988,62.0504 -5.42457,26.8985 -1.13934,55.3887 21.6117,57.0532 21.8959,1.6141 32.4287,-23.3571 27.7758,-51.2124 -3.24279,-21.0106 -17.746,-51.0386 -20.5888,-67.8912z"/>
   <path id="_90764296" class="fil53" d="M134.986 150.703c-10.6631,15.0644 -22.9837,35.1426 -28.2668,61.5229 -5.36146,26.6928 -1.21434,54.9387 21.1631,56.5838 21.5324,1.59523 31.8545,-23.1724 27.2557,-50.8109 -3.20505,-20.8732 -17.4514,-50.639 -20.1521,-67.2958z"/>
   <path id="_135110736" class="fil53" d="M134.865 151.343c-10.4275,14.8872 -22.5137,34.8171 -27.7345,60.9955 -5.29851,26.4871 -1.28966,54.4885 20.7145,56.1143 21.1688,1.57652 31.28,-22.9876 26.7353,-50.4094 -3.16731,-20.7361 -17.1566,-50.2396 -19.7153,-66.7004z"/>
   <path id="_135110808" class="fil54" d="M134.744 151.983c-10.1919,14.71 -22.0438,34.4915 -27.2025,60.4679 -5.23539,26.2815 -1.36467,54.0384 20.2659,55.6449 20.8054,1.55765 30.7058,-22.803 26.2152,-50.0079 -3.12957,-20.5989 -16.862,-49.84 -19.2786,-66.1049z"/>
   <path id="_135110880" class="fil54" d="M134.622 152.626c-9.95622,14.5328 -21.5736,34.1658 -26.6703,59.9402 -5.17228,26.0758 -1.43967,53.5884 19.8175,55.1756 20.4418,1.53894 30.1313,-22.6183 25.6949,-49.6064 -3.09198,-20.4617 -16.5674,-49.4405 -18.8421,-65.5093z"/>
   <path id="_135110952" class="fil54" d="M134.5 153.27c-9.72059,14.3555 -21.1038,33.8403 -26.1383,59.4127 -5.10917,25.8701 -1.51483,53.1381 19.3689,54.706 20.0783,1.52007 29.5571,-22.4336 25.1746,-49.2049 -3.05409,-20.3244 -16.2726,-49.0411 -18.4052,-64.9139z"/>
   <path id="_135111024" class="fil54" d="M134.376 153.915c-9.48495,14.1783 -20.6338,33.5147 -25.6061,58.8852 -5.04606,25.6645 -1.58984,52.6881 18.9204,54.2367 19.7147,1.50135 28.9826,-22.2488 24.6544,-48.8034 -3.0165,-20.1873 -15.978,-48.6415 -17.9687,-64.3185z"/>
   <path id="_135111096" class="fil55" d="M134.252 154.562c-9.24915,14.0011 -20.1638,33.1893 -25.0739,58.3576 -4.98295,25.4588 -1.66484,52.238 18.4718,53.7671 19.3513,1.48264 28.4084,-22.0639 24.1343,-48.4017 -2.97876,-20.0501 -15.6833,-48.242 -17.5321,-63.723z"/>
   <path id="_135111168" class="fil55" d="M134.127 155.211c-9.01368,13.8239 -19.6939,32.8638 -24.5418,57.8302 -4.92,25.2531 -1.74016,51.7878 18.0231,53.2976 18.9877,1.46393 27.834,-21.8792 23.6141,-48.0002 -2.94118,-19.9129 -15.3887,-47.8424 -17.0954,-63.1276z"/>
   <path id="_135111240" class="fil55" d="M134.001 155.862c-8.77788,13.6465 -19.2238,32.5381 -24.0096,57.3025 -4.85688,25.0475 -1.81517,51.3378 17.5746,52.8282 18.6241,1.44506 27.2597,-21.6946 23.0937,-47.5987 -2.90328,-19.7756 -15.0939,-47.443 -16.6587,-62.532z"/>
   <path id="_135111312" class="fil55" d="M133.875 156.514c-8.5424,13.4694 -18.7539,32.2125 -23.4776,56.7749 -4.79377,24.8418 -1.89017,50.8878 17.126,52.3589 18.2606,1.42635 26.6854,-21.5099 22.5736,-47.1972 -2.8657,-19.6384 -14.7993,-47.0435 -16.222,-61.9366z"/>
   <path id="_135111384" class="fil55" d="M133.747 157.168c-8.30661,13.2921 -18.2839,31.887 -22.9454,56.2473 -4.73082,24.6361 -1.96533,50.4378 16.6776,51.8895 17.897,1.40748 26.111,-21.3252 22.0533,-46.7957 -2.82796,-19.5013 -14.5045,-46.6439 -15.7855,-61.3411z"/>
   <path id="_135111456" class="fil55" d="M133.619 157.824c-8.07097,13.115 -17.8139,31.5614 -22.4133,55.7199 -4.66771,24.4305 -2.04034,49.9876 16.229,51.42 17.5336,1.38877 25.5367,-21.1404 21.533,-46.3942 -2.79022,-19.3641 -14.2097,-46.2445 -15.3488,-60.7457z"/>
   <path id="_135111528" class="fil56" d="M133.489 158.482c-7.83533,12.9377 -17.3441,31.2359 -21.8813,55.1924 -4.6046,24.2248 -2.11534,49.5376 15.7806,50.9506 17.17,1.3699 24.9623,-20.9557 21.0128,-45.9927 -2.75248,-19.2268 -13.9151,-45.8449 -14.9121,-60.1503z"/>
   <path id="_135111600" class="fil56" d="M133.359 159.141c-7.59969,12.7604 -16.8739,30.9102 -21.3489,54.6646 -4.54164,24.0191 -2.19066,49.0875 15.3318,50.4811 16.8065,1.35135 24.388,-20.7708 20.4927,-45.591 -2.7149,-19.0896 -13.6205,-45.4455 -14.4755,-59.5547z"/>
   <path id="_135111672" class="fil56" d="M133.228 159.803c-7.36406,12.5831 -16.4041,30.5848 -20.8169,54.1372 -4.47853,23.8135 -2.26567,48.6373 14.8834,50.0115 16.4429,1.33248 23.8136,-20.5861 19.9722,-45.1895 -2.677,-18.9525 -13.3257,-45.046 -14.0386,-58.9592z"/>
   <path id="_135111744" class="fil56" d="M133.096 160.467c-7.12842,12.406 -15.9341,30.2592 -20.2848,53.6097 -4.41542,23.6078 -2.34067,48.1873 14.4348,49.5422 16.0795,1.31376 23.2393,-20.4015 19.4521,-44.788 -2.63942,-18.8153 -13.0311,-44.6464 -13.6021,-58.3638z"/>
   <path id="_135111816" class="fil57" d="M132.962 161.133c-6.89278,12.2289 -15.4642,29.9337 -19.7528,53.0821 -4.35231,23.4021 -2.41584,47.7371 13.9862,49.0728 15.716,1.29489 22.6651,-20.2167 18.932,-44.3865 -2.60168,-18.678 -12.7365,-44.247 -13.1654,-57.7684z"/>
   <path id="_135111888" class="fil57" d="M132.828 161.801c-6.65715,12.0516 -14.9942,29.6081 -19.2206,52.5547 -4.2892,23.1965 -2.49084,47.287 13.5377,48.6033 15.3524,1.27618 22.0906,-20.032 18.4117,-43.985 -2.5641,-18.5408 -12.4418,-43.8474 -12.7288,-57.1729z"/>
   <path id="_135111960" class="fil57" d="M132.692 162.471c-6.42135,11.8743 -14.524,29.2824 -18.6884,52.027 -4.22609,22.9908 -2.56584,46.8369 13.0891,48.1339 14.989,1.25731 21.5164,-19.8473 17.8915,-43.5835 -2.5262,-18.4036 -12.147,-43.4479 -12.2921,-56.5773z"/>
   <path id="_135112032" class="fil57" d="M132.556 163.143c-6.18571,11.697 -14.0542,28.9569 -18.1564,51.4994 -4.16298,22.7851 -2.64101,46.3869 12.6407,47.6645 14.6254,1.2386 20.9421,-19.6625 17.3712,-43.182 -2.48862,-18.2665 -11.8524,-43.0485 -11.8554,-55.9819z"/>
   <path id="_135112104" class="fil57" d="M132.418 163.818c-5.95008,11.5199 -13.5842,28.6313 -17.6241,50.972 -4.10002,22.5795 -2.71617,45.9367 12.1919,47.1948 14.2619,1.21989 20.3677,-19.4776 16.8511,-42.7804 -2.45088,-18.1293 -11.5578,-42.6489 -11.4189,-55.3865z"/>
   <path id="_135112176" class="fil57" d="M132.279 164.495c-5.71444,11.3426 -13.1143,28.3058 -17.0921,50.4444 -4.03691,22.3738 -2.79117,45.4867 11.7435,46.7255 13.8982,1.20118 19.7934,-19.2929 16.3306,-42.3788 -2.41314,-17.992 -11.263,-42.2495 -10.982,-54.791z"/>
   <path id="_135112248" class="fil58" d="M132.14 165.175c-5.4788,11.1655 -12.6443,27.9802 -16.5599,49.9169 -3.9738,22.1681 -2.86634,45.0367 11.2949,46.2561 13.5347,1.18231 19.219,-19.1083 15.8105,-41.9773 -2.3754,-17.8548 -10.9684,-41.8499 -10.5455,-54.1956z"/>
   <path id="_135112320" class="fil58" d="M131.998 165.857c-5.24301,10.988 -12.1742,27.6547 -16.0278,49.3893 -3.91069,21.9625 -2.94134,44.5865 10.8464,45.7865 13.1711,1.1636 18.6447,-18.9236 15.2903,-41.5758 -2.33782,-17.7177 -10.6738,-41.4504 -10.1089,-53.6z"/>
   <path id="_135112392" class="fil58" d="M131.856 166.541c-5.00753,10.8109 -11.7043,27.3292 -15.4958,48.8617 -3.84758,21.7568 -3.01635,44.1365 10.3978,45.3172 12.8077,1.14473 18.0703,-18.7389 14.7701,-41.1743 -2.30008,-17.5805 -10.3791,-41.051 -9.67222,-53.0046z"/>
   <path id="_135112464" class="fil58" d="M131.712 167.228c-4.77173,10.6336 -11.2343,27.0036 -14.9636,48.3342 -3.78447,21.5511 -3.09151,43.6864 9.94925,44.8478 12.4442,1.12602 17.4961,-18.5541 14.2499,-40.7728 -2.26234,-17.4432 -10.0844,-40.6514 -9.23552,-52.4091z"/>
   <path id="_135112536" class="fil58" d="M131.567 167.919c-4.53625,10.4565 -10.7645,26.6781 -14.4314,47.8067 -3.72151,21.3455 -3.16667,43.2362 9.50065,44.3783 12.0806,1.10715 16.9216,-18.3694 13.7296,-40.3713 -2.2246,-17.306 -9.78972,-40.2519 -8.79881,-51.8137z"/>
   <path id="_135112608" class="fil59" d="M131.421 168.611c-4.30046,10.2794 -10.2945,26.3525 -13.8993,47.2792 -3.65856,21.1398 -3.24168,42.7862 9.05205,43.9087 11.7172,1.08859 16.3474,-18.1845 13.2095,-39.9697 -2.18702,-17.1688 -9.49494,-39.8523 -8.36226,-51.2183z"/>
   <path id="_135112680" class="fil59" d="M131.273 169.307c-4.06482,10.102 -9.82429,26.0268 -13.3671,46.7515 -3.59545,20.9341 -3.31684,42.3362 8.60361,43.4394 11.3536,1.06972 15.7729,-17.9998 12.689,-39.5682 -2.14912,-17.0317 -9.20016,-39.4529 -7.92556,-50.6227z"/>
   <path id="_135112752" class="fil59" d="M131.124 170.006c-3.82918,9.92483 -9.35445,25.7013 -12.8351,46.2239 -3.53234,20.7285 -3.39184,41.886 8.15501,42.97 10.9901,1.05101 15.1988,-17.8152 12.1689,-39.1667 -2.11154,-16.8944 -8.90553,-39.0534 -7.48885,-50.0272z"/>
   <path id="_135112824" class="fil59" d="M130.973 170.707c-3.59355,9.74754 -8.88444,25.3757 -12.3029,45.6965 -3.46923,20.5228 -3.46685,41.4358 7.70657,42.5005 10.6265,1.03214 14.6242,-17.6304 11.6487,-38.7652 -2.0738,-16.7572 -8.6109,-38.6538 -7.05231,-49.4318z"/>
   <path id="_135112896" class="fil59" d="M130.82 171.412c-3.35791,9.57042 -8.41459,25.0503 -11.7709,45.1689 -3.40611,20.3171 -3.54201,40.9858 7.25797,42.0311 10.2631,1.01343 14.0501,-17.4457 11.1285,-38.3637 -2.03622,-16.62 -8.31628,-38.2544 -6.6156,-48.8364z"/>
   <path id="_135112968" class="fil59" d="M130.666 172.12c-3.12227,9.39314 -7.94459,24.7248 -11.2386,44.6413 -3.34316,20.1115 -3.61717,40.5358 6.80937,41.5617 9.89946,0.99456 13.4756,-17.261 10.6081,-37.9622 -1.99832,-16.4829 -8.02149,-37.8548 -6.17889,-48.2409z"/>
   <path id="_135113040" class="fil59" d="M130.511 172.832c-2.88663,9.21585 -7.47458,24.3991 -10.7066,44.1138 -3.28005,19.9058 -3.69218,40.0856 6.36078,41.0922 9.53601,0.975849 12.9014,-17.0762 10.088,-37.5607 -1.96074,-16.3455 -7.72687,-37.4554 -5.74219,-47.6453z"/>
   <path id="_135113112" class="fil60" d="M130.353 173.547c-2.651,9.03857 -7.00458,24.0735 -10.1744,43.5862 -3.21694,19.7001 -3.76734,39.6356 5.91218,40.6227 9.17256,0.957137 12.327,-16.8913 9.56788,-37.159 -1.923,-16.2084 -7.43224,-37.0559 -5.30564,-47.0499z"/>
   <path id="_135113184" class="fil60" d="M130.194 174.265c-2.4152,8.86145 -6.53457,23.748 -9.64225,43.0586 -3.15383,19.4945 -3.84234,39.1855 5.46374,40.1533 8.8088,0.938426 11.7527,-16.7068 9.04745,-36.7575 -1.88526,-16.0712 -7.13746,-36.6563 -4.86894,-46.4545z"/>
   <path id="_135113256" class="fil60" d="M130.034 174.988c-2.17972,8.68416 -6.06472,23.4224 -9.11025,42.5312 -3.09072,19.2888 -3.91735,38.7354 5.01514,39.6838 8.44536,0.919556 11.1783,-16.522 8.52734,-36.356 -1.84752,-15.934 -6.84283,-36.2569 -4.43223,-45.859z"/>
   <path id="_135113328" class="fil60" d="M129.871 175.714c-1.94393,8.50704 -5.59472,23.0969 -8.57808,42.0037 -3.0276,19.0831 -3.99251,38.2853 4.5667,39.2144 8.08175,0.900844 10.604,-16.3373 8.00706,-35.9545 -1.80993,-15.7967 -6.54821,-35.8573 -3.99568,-45.2636z"/>
   <path id="_135113400" class="fil61" d="M129.706 176.444c-1.70845,8.32976 -5.12471,22.7712 -8.04591,41.4759 -2.96465,18.8775 -4.06767,37.8353 4.11794,38.745 7.71831,0.881974 10.0296,-16.1526 7.48695,-35.553 -1.77219,-15.6596 -6.25358,-35.4578 -3.55898,-44.668z"/>
   <path id="_135113472" class="fil61" d="M129.54 177.178c-1.47265,8.15247 -4.65471,22.4458 -7.51375,40.9485 -2.90154,18.6718 -4.14268,37.3851 3.6695,38.2755 7.3547,0.863263 9.4553,-15.9678 6.96652,-35.1515 -1.73445,-15.5224 -5.9588,-35.0584 -3.12227,-44.0726z"/>
   <path id="_135113544" class="fil61" d="M129.371 177.917c-1.23702,7.97535 -4.1847,22.1202 -6.98158,40.421 -2.83843,18.4661 -4.21784,36.9351 3.2209,37.806 6.99126,0.844551 8.88095,-15.7829 6.4464,-34.7498 -1.69671,-15.3852 -5.66417,-34.6588 -2.68572,-43.4771z"/>
   <path id="_135113616" class="fil61" d="M129.2 178.659c-1.00138,7.79807 -3.71485,21.7947 -6.44958,39.8934 -2.77532,18.2605 -4.29285,36.4851 2.77246,37.3366 6.62765,0.82584 8.30661,-15.5982 5.92613,-34.3483 -1.65913,-15.2481 -5.36955,-34.2594 -2.24902,-42.8817z"/>
   <path id="_135113688" class="fil61" d="M129.027 179.407c-0.765583,7.62094 -3.24485,21.4691 -5.91741,39.366 -2.71221,18.0548 -4.36785,36.0347 2.32386,36.8671 6.26421,0.80697 7.73242,-15.4136 5.40586,-33.9468 -1.62123,-15.1107 -5.07476,-33.8598 -1.81231,-42.2862z"/>
   <path id="_135113760" class="fil61" d="M128.851 180.159c-0.530104,7.4435 -2.77484,21.1434 -5.3854,38.8383 -2.64909,17.8491 -4.44301,35.5847 1.87527,36.3977 5.90076,0.788259 7.15807,-15.2289 4.88574,-33.5455 -1.58365,-14.9734 -4.78014,-33.4602 -1.37561,-41.6905z"/>
   <path id="_135113832" class="fil61" d="M128.673 180.916c-0.294309,7.26638 -2.30484,20.8179 -4.85324,38.3107 -2.58614,17.6435 -4.51802,35.1347 1.42683,35.9283 5.53716,0.769389 6.58373,-15.0441 4.36547,-33.144 -1.54591,-14.8363 -4.48535,-33.0607 -0.93906,-41.0951z"/>
   <path id="_135113904" class="fil61" d="M128.493 181.678c-0.0586714,7.08909 -1.83483,20.4923 -4.32091,37.7831 -2.52319,17.4378 -4.59318,34.6846 0.978069,35.459 5.17371,0.750677 6.00938,-14.8594 3.84536,-32.7425 -1.50833,-14.6991 -4.19073,-32.6611 -0.502513,-40.4996z"/>
   <path id="_135113976" class="fil62" d="M128.31 182.446c0.176966,6.91197 -1.36498,20.1668 -3.78891,37.2557 -2.46008,17.2321 -4.66834,34.2345 0.529629,34.9894 4.81011,0.731807 5.43504,-14.6747 3.32493,-32.341 -1.47043,-14.5618 -3.89594,-32.2617 -0.0656486,-39.9042z"/>
   <path id="_135114048" class="fil62" d="M128.124 183.219c0.412603,6.73469 -0.894977,19.8413 -3.25674,36.7282 -2.39697,17.0264 -4.74335,33.7844 0.08103,34.5199 4.44666,0.713254 4.86069,-14.4898 2.80481,-31.9393 -1.43285,-14.4246 -3.60132,-31.8621 0.370899,-39.3087z"/>
   <path id="_135114120" class="fil62" d="M127.935 183.999c0.64824,6.5574 -0.424971,19.5157 -2.72473,36.2004 -2.33385,16.8208 -4.81835,33.3344 -0.36741,34.0505 4.08306,0.694384 4.28634,-14.305 2.28454,-31.5378 -1.39511,-14.2874 -3.30669,-31.4626 0.807604,-38.7132z"/>
   <path id="_135114192" class="fil62" d="M127.744 184.784c0.883877,6.38012 0.0450343,19.1902 -2.19257,35.673 -2.27074,16.6151 -4.89351,32.8842 -0.816009,33.581 3.71961,0.675673 3.712,-14.1205 1.76427,-31.1363 -1.35737,-14.1503 -3.01191,-31.0632 1.24431,-38.1177z"/>
   <path id="_135114264" class="fil62" d="M127.549 185.575c1.11951,6.203 0.514881,18.8646 -1.66056,35.1455 -2.20763,16.4094 -4.96852,32.4342 -1.26445,33.1116 3.35585,0.656803 3.13765,-13.9357 1.24399,-30.7348 -1.31963,-14.013 -2.71728,-30.6636 1.68102,-37.5223z"/>
   <path id="_135114336" class="fil62" d="M127.351 186.373c1.35515,6.02587 0.984887,18.5391 -1.12824,34.6179 -2.14468,16.2038 -5.04368,31.9842 -1.71321,32.6422 2.9924,0.638091 2.56331,-13.751 0.723879,-30.3333 -1.28205,-13.8758 -2.42265,-30.2642 2.11756,-36.9268z"/>
   <path id="_135114408" class="fil62" d="M127.15 187.178c1.59095,5.84859 1.45489,18.2135 -0.59607,34.0905 -2.08157,15.9981 -5.11884,31.534 -2.1618,32.1727 2.62896,0.619221 1.98912,-13.5663 0.203764,-29.9316 -1.24431,-13.7388 -2.12803,-29.8647 2.55411,-36.3316z"/>
   <path id="_135114480" class="fil62" d="M126.945 187.991c1.82643,5.67131 1.9249,17.8878 -0.0640629,33.5628 -2.01846,15.7924 -5.19385,31.084 -2.61024,31.7033 2.26535,0.60051 1.41462,-13.3815 -0.316667,-29.5301 -1.20657,-13.6016 -1.83324,-29.4653 2.99097,-35.736z"/>
   <path id="_135114552" class="fil63" d="M126.736 188.811c2.06222,5.49402 2.3949,17.5623 0.468103,33.0352 -1.95534,15.5868 -5.26901,30.6338 -3.05884,31.2338 1.90191,0.581799 0.840429,-13.1966 -0.836781,-29.1285 -1.16883,-13.4643 -1.53862,-29.0657 3.42752,-35.1405z"/>
   <path id="_135114624" class="fil63" d="M126.524 189.638c2.2977,5.3169 2.86475,17.2367 1.00011,32.5078 -1.89223,15.3811 -5.34402,30.1836 -3.50728,30.7643 1.5383,0.563087 0.265924,-13.0121 -1.35705,-28.727 -1.13125,-13.3271 -1.24399,-28.6662 3.86423,-34.5451z"/>
   <path id="_135114696" class="fil63" d="M126.307 190.475c2.5335,5.13962 3.33476,16.9113 1.53228,31.9802 -1.82912,15.1754 -5.41902,29.7336 -3.95588,30.2949 1.17486,0.544217 -0.308263,-12.8273 -1.87733,-28.3255 -1.09335,-13.19 -0.949209,-28.2668 4.30093,-33.9497z"/>
   <path id="_135114768" class="fil63" d="M126.086 191.32c2.76913,4.96249 3.80476,16.5858 2.0646,31.4526 -1.76617,14.9698 -5.49434,29.2835 -4.40448,29.8255 0.811251,0.525506 -0.882767,-12.6426 -2.3976,-27.924 -1.05577,-13.0528 -0.654583,-27.8672 4.73748,-33.3542z"/>
   <path id="_135114840" class="fil63" d="M125.861 192.174c3.00477,4.78505 4.27477,16.2601 2.59661,30.9251 -1.70306,14.7641 -5.56935,28.8334 -4.85308,29.356 0.447806,0.506636 -1.45695,-12.4578 -2.91771,-27.5224 -1.01803,-12.9155 -0.359957,-27.4677 5.17419,-32.7586z"/>
   <path id="_135114912" class="fil64" d="M125.631 193.039c3.24041,4.60793 4.74477,15.9345 3.12877,30.3975 -1.63995,14.5584 -5.64435,28.3833 -5.30168,28.8866 0.08436,0.487924 -2.0313,-12.2731 -3.43783,-27.1209 -0.980447,-12.7783 -0.0653314,-27.0681 5.61073,-32.1632z"/>
   <path id="_135114984" class="fil64" d="M125.395 193.913c3.47604,4.43064 5.21462,15.609 3.66078,29.8698 -1.57699,14.3529 -5.71951,27.9335 -5.75012,28.4174 -0.279244,0.469054 -2.60565,-12.0884 -3.95826,-26.7194 -0.942549,-12.6412 0.229611,-26.6687 6.0476,-31.5678z"/>
   <path id="_135115056" class="fil64" d="M125.154 194.799c3.71168,4.25352 5.68463,15.2834 4.19295,29.3422 -1.51388,14.1473 -5.79452,27.4834 -6.19872,27.9479 -0.64269,0.450501 -3.17999,-11.9035 -4.47837,-26.3178 -0.904967,-12.504 0.524237,-26.2693 6.48414,-30.9723z"/>
   <path id="_135115128" class="fil64" d="M124.908 195.696c3.94732,4.0764 6.15447,14.9579 4.72495,28.8148 -1.45077,13.9416 -5.86952,27.0333 -6.64716,27.4784 -1.00629,0.431631 -3.75434,-11.7189 -4.99865,-25.9163 -0.867227,-12.3667 0.818863,-25.8697 6.92085,-30.3769z"/>
   <path id="_135115200" class="fil64" d="M124.656 196.606c4.18311,3.89895 6.62464,14.6322 5.25712,28.2871 -1.38766,13.7359 -5.94468,26.5832 -7.09575,27.009 -1.36974,0.41292 -4.32852,-11.5342 -5.51892,-25.5148 -0.829487,-12.2295 1.11365,-25.4702 7.35756,-29.7813z"/>
   <path id="_135115272" class="fil64" d="M124.397 197.529c4.41875,3.72183 7.09464,14.3066 5.78944,27.7595 -1.32471,13.5303 -6.01985,26.1332 -7.54435,26.5396 -1.7335,0.39405 -4.90303,-11.3494 -6.03919,-25.1133 -0.791747,-12.0923 1.40827,-25.0706 7.7941,-29.1859z"/>
   <path id="_135115344" class="fil64" d="M124.131 198.466c4.65439,3.54455 7.56449,13.9812 6.32145,27.2321 -1.26159,13.3246 -6.09485,25.683 -7.99295,26.0701 -2.09695,0.375339 -5.47722,-11.1647 -6.55931,-24.7118 -0.754166,-11.9552 1.7029,-24.6712 8.23081,-28.5904z"/>
   <path id="_135115416" class="fil64" d="M123.858 199.418c4.89003,3.36742 8.0345,13.6557 6.85362,26.7045 -1.19848,13.1189 -6.17001,25.233 -8.44139,25.6007 -2.46055,0.356469 -6.05172,-10.98 -7.07974,-24.3103 -0.716267,-11.818 1.99768,-24.2717 8.66751,-27.995z"/>
   <path id="_135115488" class="fil65" d="M123.577 200.386c5.12566,3.19014 8.50434,13.3301 7.38562,26.177 -1.13537,12.9133 -6.24502,24.7828 -8.88999,25.1314 -2.824,0.337757 -6.62591,-10.7952 -7.59985,-23.9088 -0.678686,-11.6807 2.29231,-23.8721 9.10422,-27.3996z"/>
   <path id="_135115560" class="fil65" d="M123.287 201.372c5.3613,3.01286 8.97451,13.0044 7.91779,25.6494 -1.07226,12.7076 -6.32002,24.3326 -9.33859,24.6617 -3.18744,0.319046 -7.20025,-10.6103 -8.11997,-23.5071 -0.640946,-11.5435 2.58693,-23.4727 9.54077,-26.804z"/>
   <path id="_135115632" class="fil65" d="M122.989 202.376c5.5971,2.83557 9.44451,12.6789 8.44995,25.1218 -1.00915,12.5019 -6.39519,23.8826 -9.78703,24.1923 -3.55105,0.300334 -7.7746,-10.4258 -8.64024,-23.1056 -0.603364,-11.4064 2.88156,-23.0731 9.97731,-26.2085z"/>
   <path id="_135115704" class="fil65" d="M122.68 203.4c5.83257,2.65845 9.91436,12.3533 8.98212,24.5943 -0.946196,12.2963 -6.47035,23.4326 -10.2358,23.7229 -3.91449,0.281464 -8.34894,-10.241 -9.16051,-22.7041 -0.565466,-11.2692 3.17634,-22.6737 10.4142,-25.6131z"/>
   <path id="_135115776" class="fil65" d="M122.361 204.446c6.06837,2.48117 10.3844,12.0278 9.51429,24.0669 -0.883084,12.0906 -6.54535,22.9824 -10.6842,23.2534 -4.2781,0.262753 -8.92329,-10.0563 -9.68079,-22.3026 -0.527884,-11.1319 3.47097,-22.2742 10.8507,-25.0177z"/>
   <path id="_135115848" class="fil65" d="M122.031 205.515c6.30385,2.30404 10.8542,11.7023 10.0463,23.5393 -0.819973,11.8849 -6.62052,22.5324 -11.1328,22.784 -4.64154,0.243883 -9.49764,-9.87155 -10.2009,-21.9011 -0.490144,-10.9947 3.7656,-21.8746 11.2874,-24.4222z"/>
   <path id="_135115920" class="fil66" d="M121.688 206.61c6.53964,2.1266 11.3244,11.3767 10.5785,23.0116 -0.756861,11.6793 -6.69552,22.0823 -11.5813,22.3146 -5.00515,0.225171 -10.072,-9.68681 -10.7213,-21.4996 -0.452404,-10.8575 4.06038,-21.4752 11.7241,-23.8266z"/>
   <path id="_135115992" class="fil66" d="M121.331 207.734c6.77528,1.94948 11.7944,11.0512 11.1106,22.4842 -0.69375,11.4736 -6.77052,21.6322 -12.0299,21.8451 -5.36859,0.206301 -10.6463,-9.50208 -11.2414,-21.0981 -0.414664,-10.7204 4.35501,-21.0756 12.1607,-23.2312z"/>
   <path id="_135116064" class="fil66" d="M120.959 208.888c7.01092,1.77235 12.2642,10.7256 11.6426,21.9566 -0.630639,11.2679 -6.84569,21.1821 -12.4783,21.3756 -5.7322,0.187749 -11.2207,-9.31734 -11.7617,-20.6964 -0.377083,-10.5831 4.64963,-20.6761 12.5974,-22.6358z"/>
   <path id="_135116136" class="fil66" d="M120.57 210.077c7.24656,1.59507 12.7342,10.4001 12.175,21.429 -0.567686,11.0623 -6.92085,20.7321 -12.9271,20.9062 -6.09564,0.168879 -11.795,-9.1326 -12.2818,-20.2949 -0.339343,-10.4459 4.94426,-20.2767 13.0339,-22.0403z"/>
   <path id="_135116208" class="fil66" d="M120.163 211.303c7.48219,1.41795 13.2041,10.0745 12.707,20.9015 -0.504733,10.8566 -6.99585,20.2821 -13.3757,20.4368 -6.45909,0.150167 -12.3692,-8.94787 -12.8021,-19.8934 -0.301603,-10.3087 5.2392,-19.8771 13.4708,-21.4449z"/>
   <path id="_135116280" class="fil66" d="M119.735 212.572c7.71783,1.2405 13.6742,9.74881 13.2391,20.3739 -0.441621,10.6509 -7.07102,19.8319 -13.8241,19.9673 -6.82285,0.131297 -12.9437,-8.76313 -13.3224,-19.4919 -0.263863,-10.1716 5.53383,-19.4776 13.9073,-20.8493z"/>
   <path id="_135116352" class="fil66" d="M119.283 213.889c7.95347,1.06338 14.1441,9.42327 13.7711,19.8463 -0.37851,10.4453 -7.14602,19.3817 -14.2727,19.4979 -7.1863,0.112586 -13.5179,-8.5784 -13.8425,-19.0904 -0.226281,-10.0342 5.82845,-19.078 14.3441,-20.2539z"/>
   <path id="_135116424" class="fil66" d="M118.806 215.26c8.1891,0.886097 14.6141,9.09772 14.3033,19.3188 -0.315399,10.2396 -7.22103,18.9317 -14.7211,19.0286 -7.5499,0.0937157 -14.0924,-8.39366 -14.3629,-18.6889 -0.188383,-9.89708 6.12324,-18.6786 14.7808,-19.6584z"/>
   <path id="_135116496" class="fil66" d="M118.297 216.692c8.4249,0.708973 15.0841,8.77233 14.8355,18.7913 -0.252287,10.0339 -7.29619,18.4815 -15.1697,18.559 -7.91335,0.0750043 -14.6666,-8.20893 -14.883,-18.2874 -0.150801,-9.75991 6.41786,-18.2792 15.2173,-19.063z"/>
   <path id="_135116568" class="fil67" d="M117.755 218.196c8.66038,0.53169 15.554,8.44678 15.3676,18.2638 -0.189334,9.82826 -7.37135,18.0315 -15.6183,18.0895 -8.27695,0.0562929 -15.2411,-8.02419 -15.4033,-17.8857 -0.113061,-9.62275 6.71249,-17.8796 15.654,-18.4675z"/>
   <path id="_135116640" class="fil67" d="M117.172 219.782c8.89617,0.354407 16.0241,8.12108 15.8998,17.7361 -0.126223,9.62259 -7.44636,17.5814 -16.0669,17.6201 -8.6404,0.0375814 -15.8153,-7.83945 -15.9234,-17.4842 -0.07548,-9.48543 7.00711,-17.4801 16.0906,-17.872z"/>
   <path id="_135116712" class="fil67" d="M116.541 221.466c9.13165,0.177124 16.494,7.79553 16.4318,17.2086 -0.0631114,9.41692 -7.52152,17.1313 -16.5154,17.1506 -9.004,0.0187114 -16.3898,-7.65472 -16.4439,-17.0827 -0.0375814,-9.34826 7.3019,-17.0805 16.5274,-17.2765z"/>
  </g>
  <ellipse class="fil67" cx="115.853" cy="239.947" rx="16.964" ry="16.6812"/>
  <g id="_134227808">
   <path id="_133552008" class="fil68" d="M104.893 218.825c-5.05304,0.314923 -16.4515,2.63562 -16.1394,-8.67449 19.85,-1.23733 31.413,-7.13096 51.6827,-20.3485 -2.69492,13.2567 -27.7305,28.536 -35.5433,29.023z"/>
   <path id="_134228024" class="fil68" d="M92.9971 115.212c2.59312,-0.132883 8.45154,-1.25811 8.22732,4.54006 -10.1863,0.5217 -16.1494,3.47842 -26.6191,10.1413 1.45727,-6.78273 14.3826,-14.476 18.3917,-14.6813z"/>
   <path id="_156056728" class="fil68" d="M127.131 114.284c-2.59312,-0.132883 -8.45154,-1.25811 -8.22732,4.54006 10.1863,0.5217 16.1494,3.47842 26.6191,10.1413 -1.45727,-6.78273 -14.3826,-14.476 -18.3917,-14.6813z"/>
   <ellipse id="_133551624" class="fil69 str0" cx="93.655" cy="161.763" rx="17.101" ry="26.947"/>
   <path id="_133548840" class="fil70" d="M92.2611 174.094c8.85954,-0.984094 11.7476,-7.99596 11.7476,-16.7821 0,-5.23444 -0.8658,-7.13746 -4.29887,-10.5566 -1.32439,2.6177 -4.50216,11.8656 -6.05489,15.0069l1.4032 -16.1978 -2.2376 0c-13.2101,0 -12.5011,30.3204 -0.55944,28.5295z"/>
   <ellipse id="_133550712" class="fil69 str0" cx="125.1" cy="159.472" rx="17.101" ry="26.947"/>
   <path id="_134227760" class="fil70" d="M123.673 172.082c8.85954,-0.984094 11.7476,-7.99596 11.7476,-16.7821 0,-5.23444 -0.8658,-7.13746 -4.29887,-10.5566 -1.32439,2.6177 -4.50216,11.8656 -6.05489,15.0069l1.4032 -16.1978 -2.2376 0c-13.2101,0 -12.5011,30.3204 -0.55944,28.5295z"/>
  </g>
  <path class="fil61" d="M198.358 276.134c3.76893,-32.093 2.60041,-53.015 -3.317,-85.8728 17.5822,11.3087 19.8839,69.5015 3.317,85.8728z"/>
 </g>
</svg>
