<svg width="504" height="249" viewBox="0 0 504 249" fill="none" xmlns="http://www.w3.org/2000/svg">
<path d="M6.3 249C2.82061 249 -0.00842849 246.179 0.0806515 242.701C0.86311 212.148 7.33199 181.981 19.1824 153.712C31.8465 123.502 50.4087 96.0522 73.8091 72.9304C97.2095 49.8086 124.99 31.4674 155.564 18.954C186.138 6.44057 218.907 -1.42932e-06 252 0C285.093 1.42933e-06 317.862 6.44058 348.436 18.954C379.01 31.4674 406.791 49.8086 430.191 72.9304C453.591 96.0522 472.153 123.502 484.818 153.712C496.668 181.981 503.137 212.148 503.919 242.701C504.008 246.179 501.179 249 497.7 249V249C494.221 249 491.409 246.179 491.315 242.701C490.536 213.784 484.394 185.234 473.177 158.476C461.146 129.777 443.512 103.7 421.281 81.7339C399.051 59.7682 372.66 42.3441 343.614 30.4563C314.569 18.5685 283.438 12.45 252 12.45C220.562 12.45 189.431 18.5685 160.386 30.4563C131.34 42.344 104.949 59.7682 82.7186 81.7339C60.4883 103.7 42.8542 129.777 30.8232 158.476C19.6061 185.234 13.4645 213.784 12.6849 242.701C12.5911 246.179 9.7794 249 6.3 249V249Z" fill="#BFBFBF"/>
</svg>
