<svg width="653" height="659" viewBox="0 0 653 659" fill="none" xmlns="http://www.w3.org/2000/svg">
<path d="M335.065 128.209C256.638 104.286 159.01 118.241 120 128.209V544H533V128.209C444.294 170.831 336.083 128.324 335.065 128.209Z" fill="#0094FF"/>
<circle cx="165.382" cy="138.108" r="6.5" transform="rotate(16.8882 165.382 138.108)" fill="#B3DDFC" fill-opacity="0.3"/>
<circle cx="165.013" cy="206.448" r="9" transform="rotate(16.8882 165.013 206.448)" fill="#B3DDFC" fill-opacity="0.3"/>
<circle cx="399.67" cy="239.022" r="9" transform="rotate(16.8882 399.67 239.022)" fill="#B3DDFC" fill-opacity="0.3"/>
<circle cx="452.226" cy="267.226" r="9" transform="rotate(16.8882 452.226 267.226)" fill="#B3DDFC" fill-opacity="0.3"/>
<circle cx="396.226" cy="370.226" r="9" transform="rotate(16.8882 396.226 370.226)" fill="#B3DDFC" fill-opacity="0.3"/>
<circle cx="194.226" cy="270.226" r="9" transform="rotate(16.8882 194.226 270.226)" fill="#B3DDFC" fill-opacity="0.3"/>
<circle cx="337.226" cy="181.226" r="9" transform="rotate(16.8882 337.226 181.226)" fill="#B3DDFC" fill-opacity="0.3"/>
<circle cx="224.904" cy="198.504" r="9" transform="rotate(16.8882 224.904 198.504)" fill="#B3DDFC" fill-opacity="0.3"/>
<circle cx="248.463" cy="275.463" r="14" transform="rotate(16.8882 248.463 275.463)" fill="#B3DDFC" fill-opacity="0.3"/>
<circle cx="316.463" cy="293.463" r="14" transform="rotate(16.8882 316.463 293.463)" fill="#B3DDFC" fill-opacity="0.3"/>
<circle cx="463.463" cy="496.463" r="14" transform="rotate(16.8882 463.463 496.463)" fill="#B3DDFC" fill-opacity="0.3"/>
<circle cx="166.463" cy="328.463" r="14" transform="rotate(16.8882 166.463 328.463)" fill="#B3DDFC" fill-opacity="0.3"/>
<circle cx="221.463" cy="358.463" r="14" transform="rotate(16.8882 221.463 358.463)" fill="#B3DDFC" fill-opacity="0.3"/>
<circle cx="161.064" cy="479.064" r="21.6968" transform="rotate(16.8882 161.064 479.064)" fill="#B3DDFC" fill-opacity="0.3"/>
<circle cx="326.064" cy="405.064" r="21.6968" transform="rotate(16.8882 326.064 405.064)" fill="#B3DDFC" fill-opacity="0.3"/>
<circle cx="253.064" cy="469.064" r="21.6968" transform="rotate(16.8882 253.064 469.064)" fill="#B3DDFC" fill-opacity="0.3"/>
<circle cx="244.23" cy="176.154" r="3" transform="rotate(16.8882 244.23 176.154)" fill="#B3DDFC" fill-opacity="0.3"/>
<circle cx="446.484" cy="187.484" r="6" transform="rotate(16.8882 446.484 187.484)" fill="#B3DDFC" fill-opacity="0.3"/>
<circle cx="261.667" cy="189.286" r="4.5" transform="rotate(16.8882 261.667 189.286)" fill="#B3DDFC" fill-opacity="0.3"/>
<circle cx="477.484" cy="322.484" r="6" transform="rotate(16.8882 477.484 322.484)" fill="#B3DDFC" fill-opacity="0.3"/>
<circle cx="407.484" cy="300.484" r="6" transform="rotate(16.8882 407.484 300.484)" fill="#B3DDFC" fill-opacity="0.3"/>
<circle cx="344.484" cy="500.484" r="6" transform="rotate(16.8882 344.484 500.484)" fill="#B3DDFC" fill-opacity="0.3"/>
<circle cx="418.484" cy="424.484" r="6" transform="rotate(16.8882 418.484 424.484)" fill="#B3DDFC" fill-opacity="0.3"/>
</svg>
