<svg width="1440" height="166" viewBox="0 0 1440 166" fill="none" xmlns="http://www.w3.org/2000/svg">
<path fill-rule="evenodd" clip-rule="evenodd" d="M1416 20.6138L1440 28.3138V165.314H1416H1296H1152H1008H864H744H720H696H576H432H288H144H24H0V28.3138L24 20.6138C24.2595 20.5316 24.5218 20.4485 24.7869 20.3645C49.038 12.6829 96.519 -2.35702 144 0.313787C167.035 1.6095 190.07 7.02753 213.105 12.4456C238.07 18.3176 263.035 24.1897 288 24.8138C312.123 25.4169 336.246 21.0696 360.369 16.7222C384.246 12.4193 408.123 8.11634 432 8.61377C464.333 9.28738 496.667 18.7638 529 28.2402C544.667 32.8319 560.333 37.4235 576 41.0138C623.02 51.7891 670.039 53.5445 694.5 54.4577L696 54.5138L720 55.3138L744 54.5138L745.5 54.4577C769.961 53.5445 816.98 51.7891 864 41.0138C879.667 37.4235 895.333 32.8319 911 28.2402C943.333 18.7638 975.667 9.28738 1008 8.61377C1031.88 8.11634 1055.75 12.4193 1079.63 16.7222C1103.75 21.0695 1127.88 25.4169 1152 24.8138C1176.97 24.1897 1201.93 18.3176 1226.9 12.4455C1249.93 7.02752 1272.97 1.60949 1296 0.313784C1343.48 -2.35702 1390.96 12.6829 1415.21 20.3645L1416 20.6138Z" fill="#0066FF"/>
</svg>
